<?xml version="1.0" standalone="no"?><!DOCTYPE svg PUBLIC "-//W3C//DTD SVG 1.1//EN" "http://www.w3.org/Graphics/SVG/1.1/DTD/svg11.dtd"><svg viewBox="0 0 1060 700" preserveAspectRatio="xMinYMin meet" version="1.1" xmlns="http://www.w3.org/2000/svg" xmlns:xlink="http://www.w3.org/1999/xlink"><defs xmlns="http://www.w3.org/1999/xhtml"><style type="text/css"><![CDATA[
body { margin: 0px; padding: 0px; }
.dots { fill: black; stroke: black; }
path { stroke: white; stroke-width: 2; fill: none; }]]></style></defs><g transform="translate(0,0)"><path class="polygons" d="M525.4525002226217,349.8743437113925L494.41985553775544,383.0021860628795L493.66403683586407,303.15878489501154L508.66059555728555,304.68184518606154Z" style="fill: white;"/><path class="polygons" d="M525.4525002226217,349.8743437113925L576.626670232373,359.30917369619823L580.9985716141672,412.7977688955383L487.29614684289623,439.016930719069L494.41985553775544,383.0021860628795Z" style="fill: rgb(255, 53, 94);"/><path class="polygons" d="M313.6952969724981,700L515.392134945301,558.8937400309915L637.449224576262,589.2719024900516L716.8542085408178,700Z" style="fill: rgb(255, 53, 94);"/><path class="polygons" d="M0,700L0,0L145.63624136797114,0L229.88775813351344,327.7166314709829L192.83212689609365,575.7383199108633L135.87134306289528,700Z" style="fill: rgb(255, 53, 94);"/><path class="polygons" d="M451.7349828129102,277.5089185089214L341.35997279891416,333.8261925390156L229.88775813351344,327.7166314709829L145.63624136797114,0L195.60790697674423,0L412.54552849372567,143.04435010956593L445.80445638273727,168.30980176927662L453.3421303377796,275.5474053012615Z" style="fill: rgb(255, 53, 94);"/><path class="polygons" d="M431.325871260971,395.14476981523603L450.29937301475184,433.7314626639241L192.83212689609365,575.7383199108633L229.88775813351344,327.7166314709829L341.35997279891416,333.8261925390156Z" style="fill: rgb(255, 53, 94);"/><path class="polygons" d="M604.0878367012562,0L594.4772551134691,20.30107855011316L412.54552849372567,143.04435010956593L195.60790697674423,0Z" style="fill: rgb(255, 53, 94);"/><path class="polygons" d="M445.80445638273727,168.30980176927662L412.54552849372567,143.04435010956593L594.4772551134691,20.30107855011316L542.5474225704316,169.51230875404906Z" style="fill: rgb(255, 53, 94);"/><path class="polygons" d="M525.4525002226217,349.8743437113925L508.66059555728555,304.68184518606154L578.8719716915318,302.9757418235135L576.626670232373,359.30917369619823Z" style="fill: rgb(255, 53, 94);"/><path class="polygons" d="M485.91445392985366,439.95572021261376L515.392134945301,558.8937400309915L313.6952969724981,700L135.87134306289528,700L192.83212689609365,575.7383199108633L450.29937301475184,433.7314626639241Z" style="fill: rgb(255, 53, 94);"/><path class="polygons" d="M493.66403683586407,303.15878489501154L494.41985553775544,383.0021860628795L487.29614684289623,439.016930719069L485.91445392985366,439.95572021261376L450.29937301475184,433.7314626639241L431.325871260971,395.14476981523603L451.7349828129102,277.5089185089214L453.3421303377796,275.5474053012615Z" style="fill: rgb(255, 53, 94);"/><path class="polygons" d="M451.7349828129102,277.5089185089214L431.325871260971,395.14476981523603L341.35997279891416,333.8261925390156Z" style="fill: rgb(255, 53, 94);"/><path class="polygons" d="M1060,0L1060,7.1083204845813555L907.3003694229944,184.31893251158542L701.101075633805,207.57791677580855L655.7745399650463,190.164118610672L698.5754997540178,0Z" style="fill: rgb(0, 102, 255);"/><path class="polygons" d="M693.7899789521839,438.54453269642835L877.0320975692937,461.7992537137176L1016.0417596205341,700L716.8542085408178,700L637.449224576262,589.2719024900516L647.4576774136806,456.89112077664004Z" style="fill: rgb(0, 102, 255);"/><path class="polygons" d="M718.2339505347188,328.15725353224036L701.101075633805,207.57791677580855L907.3003694229944,184.31893251158542L858.8514357355791,341.191089000704Z" style="fill: rgb(0, 102, 255);"/><path class="polygons" d="M616.4551749034981,428.02371124526945L664.0982542198482,329.0398807850317L716.9866818034843,328.9842087559963L693.7899789521839,438.54453269642835L647.4576774136806,456.89112077664004Z" style="fill: rgb(0, 102, 255);"/><path class="polygons" d="M599.9127549647626,278.7362413204901L611.1909291354264,205.2947439208936L655.7745399650463,190.164118610672L701.101075633805,207.57791677580855L718.2339505347188,328.15725353224036L716.9866818034843,328.9842087559963L664.0982542198482,329.0398807850317Z" style="fill: rgb(0, 102, 255);"/><path class="polygons" d="M576.626670232373,359.30917369619823L578.8719716915318,302.9757418235135L599.9127549647626,278.7362413204901L664.0982542198482,329.0398807850317L616.4551749034981,428.02371124526945L580.9985716141672,412.7977688955383Z" style="fill: rgb(0, 102, 255);"/><path class="polygons" d="M611.1909291354264,205.2947439208936L542.5474225704316,169.51230875404906L594.4772551134691,20.30107855011316L604.0878367012562,0L698.5754997540178,0L655.7745399650463,190.164118610672Z" style="fill: rgb(0, 102, 255);"/><path class="polygons" d="M487.29614684289623,439.016930719069L580.9985716141672,412.7977688955383L616.4551749034981,428.02371124526945L647.4576774136806,456.89112077664004L637.449224576262,589.2719024900516L515.392134945301,558.8937400309915L485.91445392985366,439.95572021261376Z" style="fill: rgb(0, 102, 255);"/><path class="polygons" d="M693.7899789521839,438.54453269642835L716.9866818034843,328.9842087559963L718.2339505347188,328.15725353224036L858.8514357355791,341.191089000704L877.0320975692937,461.7992537137176Z" style="fill: rgb(0, 102, 255);"/><path class="polygons" d="M1060,700L1016.0417596205341,700L877.0320975692937,461.7992537137176L858.8514357355791,341.191089000704L907.3003694229944,184.31893251158542L1060,7.1083204845813555Z" style="fill: rgb(0, 102, 255);"/><path class="polygons" d="M493.66403683586407,303.15878489501154L453.3421303377796,275.5474053012615L445.80445638273727,168.30980176927662L542.5474225704316,169.51230875404906L611.1909291354264,205.2947439208936L599.9127549647626,278.7362413204901L578.8719716915318,302.9757418235135L508.66059555728555,304.68184518606154Z" style="fill: rgb(0, 102, 255);"/><circle class="dots" id="dot_0" r="2" cx="518.9200000000001" cy="348.45" style="fill: white;"/><circle class="dots" id="dot_1" r="2" cx="527.3" cy="356.30000000000007" style="fill: black;"/><circle class="dots" id="dot_2" r="2" cx="525.92" cy="643.65" style="fill: black;"/><circle class="dots" id="dot_3" r="2" cx="74.17000000000002" cy="352.5399999999999" style="fill: black;"/><circle class="dots" id="dot_4" r="2" cx="378.27" cy="274.36" style="fill: black;"/><circle class="dots" id="dot_5" r="2" cx="371.55" cy="396.96999999999997" style="fill: black;"/><circle class="dots" id="dot_6" r="2" cx="519.74" cy="59.80999999999993" style="fill: black;"/><circle class="dots" id="dot_7" r="2" cx="529.86" cy="74.81000000000003" style="fill: black;"/><circle class="dots" id="dot_8" r="2" cx="529.47" cy="344.53000000000003" style="fill: black;"/><circle class="dots" id="dot_9" r="2" cx="439.38000000000005" cy="519.95" style="fill: black;"/><circle class="dots" id="dot_10" r="2" cx="469.27" cy="348.9200000000001" style="fill: black;"/><circle class="dots" id="dot_11" r="2" cx="411.17" cy="338.84" style="fill: black;"/><circle class="dots" id="dot_12" r="2" cx="733.25" cy="130.60000000000002" style="fill: black;"/><circle class="dots" id="dot_13" r="2" cx="724.73" cy="501.08000000000004" style="fill: black;"/><circle class="dots" id="dot_14" r="2" cx="749.59" cy="275.46" style="fill: black;"/><circle class="dots" id="dot_15" r="2" cx="673.53" cy="371.78" style="fill: black;"/><circle class="dots" id="dot_16" r="2" cx="673.4399999999999" cy="286.28" style="fill: black;"/><circle class="dots" id="dot_17" r="2" cx="624.81" cy="348.33" style="fill: black;"/><circle class="dots" id="dot_18" r="2" cx="611.29" cy="103.14999999999999" style="fill: black;"/><circle class="dots" id="dot_19" r="2" cx="564.4200000000001" cy="488.9599999999999" style="fill: black;"/><circle class="dots" id="dot_20" r="2" cx="739.37" cy="385.71999999999997" style="fill: black;"/><circle class="dots" id="dot_21" r="2" cx="986.1500000000001" cy="348.52" style="fill: black;"/><circle class="dots" id="dot_22" r="2" cx="527.51" cy="263.87" style="fill: black;"/></g></svg>