<?xml version="1.0" standalone="no"?><!DOCTYPE svg PUBLIC "-//W3C//DTD SVG 1.1//EN" "http://www.w3.org/Graphics/SVG/1.1/DTD/svg11.dtd"><svg viewBox="0 0 1222 883.4678700819932" preserveAspectRatio="xMidYMid meet" version="1.1" xmlns="http://www.w3.org/2000/svg" xmlns:xlink="http://www.w3.org/1999/xlink"><defs xmlns="http://www.w3.org/1999/xhtml"><style type="text/css"><![CDATA[
html, body { height: 100%; margin: 0px; padding: 0px; overflow: hidden; background-color: rgb(248, 248, 248); }
svg { position: fixed; top: 0px; bottom: 0px; left: 0px; right: 0px; width: 100%; height: 100%; }
.black-key { stroke: rgb(0, 0, 0); stroke-width: 0.5px; fill: rgb(0, 0, 0); }
.white-key { stroke: rgb(0, 0, 0); stroke-width: 0.5px; fill: rgb(255, 255, 255); }
text { cursor: default; }]]></style></defs><g><rect class="white-key" width="23.5" height="0" x="0" y="0"/><rect class="white-key" width="23.5" height="0" x="23.5" y="0"/><rect class="white-key" width="23.5" height="0.05594429304637867" x="47" y="0"/><rect class="white-key" width="23.5" height="0.39161005132465065" x="70.5" y="0"/><rect class="white-key" width="23.5" height="0.9510529817884374" x="94" y="0"/><rect class="white-key" width="23.5" height="0.6153872235101653" x="117.5" y="0"/><rect class="white-key" width="23.5" height="2.293716014901525" x="141" y="0"/><rect class="white-key" width="23.5" height="4.755264908942187" x="164.5" y="0"/><rect class="white-key" width="23.5" height="4.58743202980305" x="188" y="0"/><rect class="white-key" width="23.5" height="19.524558273186155" x="211.5" y="0"/><rect class="white-key" width="23.5" height="39.49667089074334" x="235" y="0"/><rect class="white-key" width="23.5" height="56.6715688559816" x="258.5" y="0"/><rect class="white-key" width="23.5" height="54.37785284108007" x="282" y="0"/><rect class="white-key" width="23.5" height="119.27323277487933" x="305.5" y="0"/><rect class="white-key" width="23.5" height="184.72805563914235" x="329" y="0"/><rect class="white-key" width="23.5" height="201.56728784610235" x="352.5" y="0"/><rect class="white-key" width="23.5" height="243.63739621697908" x="376" y="0"/><rect class="white-key" width="23.5" height="364.4211249041106" x="399.5" y="0"/><rect class="white-key" width="23.5" height="390.0436111193521" x="423" y="0"/><rect class="white-key" width="23.5" height="311.7216008544219" x="446.5" y="0"/><rect class="white-key" width="23.5" height="424.6171842220141" x="470" y="0"/><rect class="white-key" width="23.5" height="442.183692238577" x="493.5" y="0"/><rect class="white-key" width="23.5" height="354.96653937927266" x="517" y="0"/><rect class="white-key" width="23.5" height="393.73593446041303" x="540.5" y="0"/><rect class="white-key" width="23.5" height="464.8411309223603" x="564" y="0"/><rect class="white-key" width="23.5" height="468.42156567732866" x="587.5" y="0"/><rect class="white-key" width="23.5" height="426.57523447863736" x="611" y="0"/><rect class="white-key" width="23.5" height="533.8763885415916" x="634.5" y="0"/><rect class="white-key" width="23.5" height="603.6948662634721" x="658" y="0"/><rect class="white-key" width="23.5" height="478.15587266739846" x="681.5" y="0"/><rect class="white-key" width="23.5" height="547.079241700537" x="705" y="0"/><rect class="white-key" width="23.5" height="540.3659265349715" x="728.5" y="0"/><rect class="white-key" width="23.5" height="409.56816939253827" x="752" y="0"/><rect class="white-key" width="23.5" height="312.95237530144226" x="775.5" y="0"/><rect class="white-key" width="23.5" height="259.41368685605784" x="799" y="0"/><rect class="white-key" width="23.5" height="148.08454369376435" x="822.5" y="0"/><rect class="white-key" width="23.5" height="50.0701422765089" x="846" y="0"/><rect class="white-key" width="23.5" height="32.67146713908514" x="869.5" y="0"/><rect class="white-key" width="23.5" height="1.902105963576875" x="893" y="0"/><rect class="white-key" width="23.5" height="2.1258831357623893" x="916.5" y="0"/><rect class="white-key" width="23.5" height="1.2307744470203306" x="940" y="0"/><rect class="white-key" width="23.5" height="0.8391643956956801" x="963.5" y="0"/><rect class="white-key" width="23.5" height="0.22377717218551468" x="987" y="0"/><rect class="white-key" width="23.5" height="0.335665758278272" x="1010.5" y="0"/><rect class="white-key" width="23.5" height="0.05594429304637867" x="1034" y="0"/><rect class="white-key" width="23.5" height="0.11188858609275734" x="1057.5" y="0"/><rect class="white-key" width="23.5" height="0.27972146523189334" x="1081" y="0"/><rect class="white-key" width="23.5" height="0.167832879139136" x="1104.5" y="0"/><rect class="white-key" width="23.5" height="0.05594429304637867" x="1128" y="0"/><rect class="white-key" width="23.5" height="0" x="1151.5" y="0"/><rect class="white-key" width="23.5" height="0" x="1175" y="0"/><rect class="white-key" width="23.5" height="0" x="1198.5" y="0"/><rect class="black-key" width="13.9" height="0" x="16.55" y="0"/><rect class="black-key" width="13.9" height="0.1006997274834816" x="63.55" y="0"/><rect class="black-key" width="13.9" height="0.503498637417408" x="87.05" y="0"/><rect class="black-key" width="13.9" height="0.4027989099339264" x="134.05" y="0"/><rect class="black-key" width="13.9" height="1.342663033113088" x="157.55" y="0"/><rect class="black-key" width="13.9" height="1.4433627605965695" x="181.05" y="0"/><rect class="black-key" width="13.9" height="5.773451042386278" x="228.05" y="0"/><rect class="black-key" width="13.9" height="13.124531148680434" x="251.55" y="0"/><rect class="black-key" width="13.9" height="34.03650788941678" x="298.55" y="0"/><rect class="black-key" width="13.9" height="49.107900436111194" x="322.05" y="0"/><rect class="black-key" width="13.9" height="79.48565156029481" x="345.55" y="0"/><rect class="black-key" width="13.9" height="121.17533873845618" x="392.55" y="0"/><rect class="black-key" width="13.9" height="130.77537942521477" x="416.05" y="0"/><rect class="black-key" width="13.9" height="185.79099720702354" x="463.05" y="0"/><rect class="black-key" width="13.9" height="164.30838867721414" x="486.55" y="0"/><rect class="black-key" width="13.9" height="172.63289948251528" x="510.05" y="0"/><rect class="black-key" width="13.9" height="164.61048785966457" x="557.05" y="0"/><rect class="black-key" width="13.9" height="164.2412555255585" x="580.55" y="0"/><rect class="black-key" width="13.9" height="213.18132308253053" x="627.55" y="0"/><rect class="black-key" width="13.9" height="202.44001881762583" x="651.05" y="0"/><rect class="black-key" width="13.9" height="249.97029018982917" x="674.55" y="0"/><rect class="black-key" width="13.9" height="205.72954324875292" x="721.55" y="0"/><rect class="black-key" width="13.9" height="173.06926496827705" x="745.05" y="0"/><rect class="black-key" width="13.9" height="130.20474763614172" x="792.05" y="0"/><rect class="black-key" width="13.9" height="70.92617472419887" x="815.55" y="0"/><rect class="black-key" width="13.9" height="42.49528499802924" x="839.05" y="0"/><rect class="black-key" width="13.9" height="1.6783287913913603" x="886.05" y="0"/><rect class="black-key" width="13.9" height="1.4097961847687424" x="909.55" y="0"/><rect class="black-key" width="13.9" height="0.335665758278272" x="956.55" y="0"/><rect class="black-key" width="13.9" height="0.4699320615895808" x="980.05" y="0"/><rect class="black-key" width="13.9" height="0.2349660307947904" x="1003.55" y="0"/><rect class="black-key" width="13.9" height="0.1006997274834816" x="1050.55" y="0"/><rect class="black-key" width="13.9" height="0.167832879139136" x="1074.05" y="0"/><rect class="black-key" width="13.9" height="0.033566575827827204" x="1121.05" y="0"/><rect class="black-key" width="13.9" height="0.06713315165565441" x="1144.55" y="0"/><rect class="black-key" width="13.9" height="0" x="1168.05" y="0"/></g><g><text x="3" y="279" font-family="sans-serif" font-size="16px">All (782)</text><text x="3" y="299" font-family="sans-serif" font-size="16px">Albéniz (6)</text><text x="3" y="319" font-family="sans-serif" font-size="16px" style="font-weight: bold;">Bach (83)</text><text x="3" y="339" font-family="sans-serif" font-size="16px">Balakirev (4)</text><text x="3" y="359" font-family="sans-serif" font-size="16px">Beethoven (85)</text><text x="3" y="379" font-family="sans-serif" font-size="16px">Brahms (21)</text><text x="3" y="399" font-family="sans-serif" font-size="16px">Chopin (96)</text><text x="3" y="419" font-family="sans-serif" font-size="16px">Clementi (6)</text><text x="3" y="439" font-family="sans-serif" font-size="16px">Debussy (39)</text><text x="3" y="459" font-family="sans-serif" font-size="16px">Franck (4)</text><text x="3" y="479" font-family="sans-serif" font-size="16px">Handel (4)</text><text x="3" y="499" font-family="sans-serif" font-size="16px">Haydn (29)</text><text x="3" y="519" font-family="sans-serif" font-size="16px">Janáček (4)</text><text x="3" y="539" font-family="sans-serif" font-size="16px">Liszt (82)</text><text x="3" y="559" font-family="sans-serif" font-size="16px">Medtner (5)</text><text x="3" y="579" font-family="sans-serif" font-size="16px">Mendelssohn (6)</text><text x="3" y="599" font-family="sans-serif" font-size="16px">Mozart (33)</text><text x="3" y="619" font-family="sans-serif" font-size="16px">Rachmaninoff (43)</text><text x="3" y="639" font-family="sans-serif" font-size="16px">Scarlatti (29)</text><text x="3" y="659" font-family="sans-serif" font-size="16px">Schubert (79)</text><text x="3" y="679" font-family="sans-serif" font-size="16px">Schumann (29)</text><text x="3" y="699" font-family="sans-serif" font-size="16px">Scriabin (26)</text><text x="3" y="719" font-family="sans-serif" font-size="16px">Tchaikovsky (5)</text></g><text x="3" y="190" font-family="sans-serif" font-size="24px">Bach charts</text><text x="3" y="220" font-family="sans-serif" font-size="16px">Hover on a composer below</text><text x="3" y="255" font-family="sans-serif" font-size="16px" font-style="italic">Composer (no. pieces)</text><text x="3" y="750" font-family="sans-serif" font-size="16px" class="caption">Tom White, 2020</text><text x="3" y="770" font-family="sans-serif" font-size="16px" class="caption">Data source: MAESTRO Dataset</text></svg>