<?xml version="1.0" standalone="no"?><!DOCTYPE svg PUBLIC "-//W3C//DTD SVG 1.1//EN" "http://www.w3.org/Graphics/SVG/1.1/DTD/svg11.dtd"><svg width="800" height="500" version="1.1" xmlns="http://www.w3.org/2000/svg" xmlns:xlink="http://www.w3.org/1999/xlink"><defs xmlns="http://www.w3.org/1999/xhtml"><style type="text/css"><![CDATA[]]></style></defs><g transform="translate(30,40)"><text x="590.70796460177" dx="-5" y="70" class="date-2020-06-08" text-anchor="end" alignment-baseline="central" visibility="visible">Johnson: "government first took notice" (8 June)</text><line x1="590.70796460177" y1="70" x2="590.70796460177" y2="415" class="date-2020-06-08" stroke="grey" stroke-width="0.5" visibility="visible"/><text x="730.0884955752213" dx="-5" y="-10" class="date-2020-06-29" text-anchor="end" alignment-baseline="central" visibility="visible">Leicester lockdown imposed (29 June)</text><line x1="730.0884955752213" y1="-10" x2="730.0884955752213" y2="415" class="date-2020-06-29" stroke="grey" stroke-width="0.5" visibility="visible"/><text x="750" dx="-5" y="-30" class="date-2020-07-02" text-anchor="end" alignment-baseline="central" visibility="visible">Pillar 2 data published (2 July)</text><line x1="750" y1="-30" x2="750" y2="415" class="date-2020-07-02" stroke="grey" stroke-width="0.5" visibility="visible"/><rect class="date-2020-07-02" x="-2.5" y="410.7216494845361" width="5" height="4.278350515463899" fill="lightblue" visibility="visible"/><rect class="date-2020-07-02" x="4.1371681415929205" y="410.7216494845361" width="5" height="4.278350515463899" fill="lightblue" visibility="visible"/><rect class="date-2020-07-02" x="10.774336283185841" y="410.7216494845361" width="5" height="4.278350515463899" fill="lightblue" visibility="visible"/><rect class="date-2020-07-02" x="30.6858407079646" y="406.44329896907215" width="5" height="8.556701030927854" fill="lightblue" visibility="visible"/><rect class="date-2020-07-02" x="37.323008849557525" y="402.16494845360825" width="5" height="12.835051546391753" fill="lightblue" visibility="visible"/><rect class="date-2020-07-02" x="43.96017699115044" y="393.6082474226804" width="5" height="21.391752577319608" fill="lightblue" visibility="visible"/><rect class="date-2020-07-02" x="50.597345132743364" y="389.3298969072165" width="5" height="25.670103092783506" fill="lightblue" visibility="visible"/><rect class="date-2020-07-02" x="57.23451327433628" y="406.44329896907215" width="5" height="8.556701030927854" fill="lightblue" visibility="visible"/><rect class="date-2020-07-02" x="63.8716814159292" y="393.6082474226804" width="5" height="21.391752577319608" fill="lightblue" visibility="visible"/><rect class="date-2020-07-02" x="70.50884955752213" y="385.0515463917526" width="5" height="29.948453608247405" fill="lightblue" visibility="visible"/><rect class="date-2020-07-02" x="77.14601769911505" y="367.9381443298969" width="5" height="47.061855670103114" fill="lightblue" visibility="visible"/><rect class="date-2020-07-02" x="83.78318584070796" y="329.4329896907217" width="5" height="85.56701030927832" fill="lightblue" visibility="visible"/><rect class="date-2020-07-02" x="90.42035398230088" y="393.6082474226804" width="5" height="21.391752577319608" fill="lightblue" visibility="visible"/><rect class="date-2020-07-02" x="97.05752212389382" y="359.3814432989691" width="5" height="55.61855670103091" fill="lightblue" visibility="visible"/><rect class="date-2020-07-02" x="103.69469026548673" y="380.77319587628864" width="5" height="34.22680412371136" fill="lightblue" visibility="visible"/><rect class="date-2020-07-02" x="110.33185840707965" y="367.9381443298969" width="5" height="47.061855670103114" fill="lightblue" visibility="visible"/><rect class="date-2020-07-02" x="116.96902654867256" y="410.7216494845361" width="5" height="4.278350515463899" fill="lightblue" visibility="visible"/><rect class="date-2020-07-02" x="123.6061946902655" y="393.6082474226804" width="5" height="21.391752577319608" fill="lightblue" visibility="visible"/><rect class="date-2020-07-02" x="130.2433628318584" y="299.4845360824742" width="5" height="115.51546391752578" fill="lightblue" visibility="visible"/><rect class="date-2020-07-02" x="136.88053097345133" y="273.8144329896907" width="5" height="141.18556701030928" fill="lightblue" visibility="visible"/><rect class="date-2020-07-02" x="143.51769911504425" y="312.319587628866" width="5" height="102.68041237113403" fill="lightblue" visibility="visible"/><rect class="date-2020-07-02" x="150.15486725663717" y="303.7628865979382" width="5" height="111.23711340206182" fill="lightblue" visibility="visible"/><rect class="date-2020-07-02" x="156.7920353982301" y="350.82474226804123" width="5" height="64.17525773195877" fill="lightblue" visibility="visible"/><rect class="date-2020-07-02" x="163.42920353982302" y="329.4329896907217" width="5" height="85.56701030927832" fill="lightblue" visibility="visible"/><rect class="date-2020-07-02" x="170.06637168141592" y="303.7628865979382" width="5" height="111.23711340206182" fill="lightblue" visibility="visible"/><rect class="date-2020-07-02" x="176.70353982300887" y="308.0412371134021" width="5" height="106.95876288659792" fill="lightblue" visibility="visible"/><rect class="date-2020-07-02" x="183.34070796460176" y="329.4329896907217" width="5" height="85.56701030927832" fill="lightblue" visibility="visible"/><rect class="date-2020-07-02" x="189.97787610619469" y="282.37113402061857" width="5" height="132.62886597938143" fill="lightblue" visibility="visible"/><rect class="date-2020-07-02" x="196.61504424778764" y="329.4329896907217" width="5" height="85.56701030927832" fill="lightblue" visibility="visible"/><rect class="date-2020-07-02" x="203.25221238938053" y="342.2680412371134" width="5" height="72.73195876288662" fill="lightblue" visibility="visible"/><rect class="date-2020-07-02" x="209.88938053097345" y="312.319587628866" width="5" height="102.68041237113403" fill="lightblue" visibility="visible"/><rect class="date-2020-07-02" x="216.52654867256638" y="372.21649484536084" width="5" height="42.78350515463916" fill="lightblue" visibility="visible"/><rect class="date-2020-07-02" x="223.1637168141593" y="355.1030927835052" width="5" height="59.89690721649481" fill="lightblue" visibility="visible"/><rect class="date-2020-07-02" x="229.8008849557522" y="350.82474226804123" width="5" height="64.17525773195877" fill="lightblue" visibility="visible"/><rect class="date-2020-07-02" x="236.43805309734512" y="372.21649484536084" width="5" height="42.78350515463916" fill="lightblue" visibility="visible"/><rect class="date-2020-07-02" x="243.07522123893807" y="363.659793814433" width="5" height="51.34020618556701" fill="lightblue" visibility="visible"/><rect class="date-2020-07-02" x="249.712389380531" y="337.9896907216495" width="5" height="77.01030927835052" fill="lightblue" visibility="visible"/><rect class="date-2020-07-02" x="256.34955752212386" y="299.4845360824742" width="5" height="115.51546391752578" fill="lightblue" visibility="visible"/><rect class="date-2020-07-02" x="262.9867256637168" y="295.2061855670103" width="5" height="119.79381443298968" fill="lightblue" visibility="visible"/><rect class="date-2020-07-02" x="269.62389380530976" y="333.7113402061856" width="5" height="81.28865979381442" fill="lightblue" visibility="visible"/><rect class="date-2020-07-02" x="276.26106194690266" y="290.92783505154637" width="5" height="124.07216494845363" fill="lightblue" visibility="visible"/><rect class="date-2020-07-02" x="282.89823008849555" y="320.87628865979383" width="5" height="94.12371134020617" fill="lightblue" visibility="visible"/><rect class="date-2020-07-02" x="289.5353982300885" y="256.70103092783506" width="5" height="158.29896907216494" fill="lightblue" visibility="visible"/><rect class="date-2020-07-02" x="296.1725663716814" y="325.1546391752577" width="5" height="89.84536082474227" fill="lightblue" visibility="visible"/><rect class="date-2020-07-02" x="302.80973451327435" y="385.0515463917526" width="5" height="29.948453608247405" fill="lightblue" visibility="visible"/><rect class="date-2020-07-02" x="309.44690265486724" y="260.97938144329896" width="5" height="154.02061855670104" fill="lightblue" visibility="visible"/><rect class="date-2020-07-02" x="316.0840707964602" y="278.09278350515467" width="5" height="136.90721649484533" fill="lightblue" visibility="visible"/><rect class="date-2020-07-02" x="322.7212389380531" y="256.70103092783506" width="5" height="158.29896907216494" fill="lightblue" visibility="visible"/><rect class="date-2020-07-02" x="329.35840707964604" y="235.30927835051546" width="5" height="179.69072164948454" fill="lightblue" visibility="visible"/><rect class="date-2020-07-02" x="335.99557522123894" y="346.54639175257734" width="5" height="68.45360824742266" fill="lightblue" visibility="visible"/><rect class="date-2020-07-02" x="342.63274336283183" y="372.21649484536084" width="5" height="42.78350515463916" fill="lightblue" visibility="visible"/><rect class="date-2020-07-02" x="349.2699115044248" y="342.2680412371134" width="5" height="72.73195876288662" fill="lightblue" visibility="visible"/><rect class="date-2020-07-02" x="355.90707964601773" y="260.97938144329896" width="5" height="154.02061855670104" fill="lightblue" visibility="visible"/><rect class="date-2020-07-02" x="362.54424778761063" y="308.0412371134021" width="5" height="106.95876288659792" fill="lightblue" visibility="visible"/><rect class="date-2020-07-02" x="369.1814159292035" y="179.69072164948454" width="5" height="235.30927835051546" fill="lightblue" visibility="visible"/><rect class="date-2020-07-02" x="375.8185840707965" y="286.64948453608247" width="5" height="128.35051546391753" fill="lightblue" visibility="visible"/><rect class="date-2020-07-02" x="382.45575221238937" y="269.5360824742268" width="5" height="145.46391752577318" fill="lightblue" visibility="visible"/><rect class="date-2020-07-02" x="389.0929203539823" y="337.9896907216495" width="5" height="77.01030927835052" fill="lightblue" visibility="visible"/><rect class="date-2020-07-02" x="395.7300884955753" y="295.2061855670103" width="5" height="119.79381443298968" fill="lightblue" visibility="visible"/><rect class="date-2020-07-02" x="402.3672566371681" y="273.8144329896907" width="5" height="141.18556701030928" fill="lightblue" visibility="visible"/><rect class="date-2020-07-02" x="409.00442477876106" y="248.1443298969072" width="5" height="166.8556701030928" fill="lightblue" visibility="visible"/><rect class="date-2020-07-02" x="415.64159292035396" y="252.42268041237116" width="5" height="162.57731958762884" fill="lightblue" visibility="visible"/><rect class="date-2020-07-02" x="422.2787610619469" y="290.92783505154637" width="5" height="124.07216494845363" fill="lightblue" visibility="visible"/><rect class="date-2020-07-02" x="428.9159292035398" y="231.03092783505156" width="5" height="183.96907216494844" fill="lightblue" visibility="visible"/><rect class="date-2020-07-02" x="435.55309734513276" y="158.29896907216494" width="5" height="256.70103092783506" fill="lightblue" visibility="visible"/><rect class="date-2020-07-02" x="442.1902654867257" y="269.5360824742268" width="5" height="145.46391752577318" fill="lightblue" visibility="visible"/><rect class="date-2020-07-02" x="448.8274336283186" y="269.5360824742268" width="5" height="145.46391752577318" fill="lightblue" visibility="visible"/><rect class="date-2020-07-02" x="455.46460176991144" y="218.1958762886598" width="5" height="196.8041237113402" fill="lightblue" visibility="visible"/><rect class="date-2020-07-02" x="462.1017699115044" y="239.58762886597935" width="5" height="175.41237113402065" fill="lightblue" visibility="visible"/><rect class="date-2020-07-02" x="468.73893805309734" y="196.8041237113402" width="5" height="218.1958762886598" fill="lightblue" visibility="visible"/><rect class="date-2020-07-02" x="475.37610619469024" y="316.5979381443299" width="5" height="98.40206185567013" fill="lightblue" visibility="visible"/><rect class="date-2020-07-02" x="482.0132743362832" y="282.37113402061857" width="5" height="132.62886597938143" fill="lightblue" visibility="visible"/><rect class="date-2020-07-02" x="488.65044247787614" y="325.1546391752577" width="5" height="89.84536082474227" fill="lightblue" visibility="visible"/><rect class="date-2020-07-02" x="495.28761061946904" y="303.7628865979382" width="5" height="111.23711340206182" fill="lightblue" visibility="visible"/><rect class="date-2020-07-02" x="501.924778761062" y="308.0412371134021" width="5" height="106.95876288659792" fill="lightblue" visibility="visible"/><rect class="date-2020-07-02" x="508.5619469026548" y="278.09278350515467" width="5" height="136.90721649484533" fill="lightblue" visibility="visible"/><rect class="date-2020-07-02" x="515.1991150442477" y="269.5360824742268" width="5" height="145.46391752577318" fill="lightblue" visibility="visible"/><rect class="date-2020-07-02" x="521.8362831858407" y="308.0412371134021" width="5" height="106.95876288659792" fill="lightblue" visibility="visible"/><rect class="date-2020-07-02" x="528.4734513274336" y="325.1546391752577" width="5" height="89.84536082474227" fill="lightblue" visibility="visible"/><rect class="date-2020-07-02" x="535.1106194690266" y="295.2061855670103" width="5" height="119.79381443298968" fill="lightblue" visibility="visible"/><rect class="date-2020-07-02" x="541.7477876106195" y="226.75257731958766" width="5" height="188.24742268041234" fill="lightblue" visibility="visible"/><rect class="date-2020-07-02" x="548.3849557522124" y="128.35051546391753" width="5" height="286.64948453608247" fill="lightblue" visibility="visible"/><rect class="date-2020-07-02" x="555.0221238938053" y="295.2061855670103" width="5" height="119.79381443298968" fill="lightblue" visibility="visible"/><rect class="date-2020-07-02" x="561.6592920353982" y="256.70103092783506" width="5" height="158.29896907216494" fill="lightblue" visibility="visible"/><rect class="date-2020-07-02" x="568.2964601769911" y="295.2061855670103" width="5" height="119.79381443298968" fill="lightblue" visibility="visible"/><rect class="date-2020-07-02" x="574.933628318584" y="312.319587628866" width="5" height="102.68041237113403" fill="lightblue" visibility="visible"/><rect class="date-2020-07-02" x="581.570796460177" y="213.91752577319585" width="5" height="201.08247422680415" fill="lightblue" visibility="visible"/><rect class="date-2020-07-02" x="588.20796460177" y="158.29896907216494" width="5" height="256.70103092783506" fill="lightblue" visibility="visible"/><rect class="date-2020-07-02" x="594.8451327433628" y="136.9072164948454" width="5" height="278.0927835051546" fill="lightblue" visibility="visible"/><rect class="date-2020-07-02" x="601.4823008849557" y="162.5773195876289" width="5" height="252.4226804123711" fill="lightblue" visibility="visible"/><rect class="date-2020-07-02" x="608.1194690265487" y="89.84536082474227" width="5" height="325.1546391752577" fill="lightblue" visibility="visible"/><rect class="date-2020-07-02" x="614.7566371681415" y="175.41237113402065" width="5" height="239.58762886597935" fill="lightblue" visibility="visible"/><rect class="date-2020-07-02" x="621.3938053097345" y="166.8556701030928" width="5" height="248.1443298969072" fill="lightblue" visibility="visible"/><rect class="date-2020-07-02" x="628.0309734513274" y="149.74226804123714" width="5" height="265.25773195876286" fill="lightblue" visibility="visible"/><rect class="date-2020-07-02" x="634.6681415929204" y="89.84536082474227" width="5" height="325.1546391752577" fill="lightblue" visibility="visible"/><rect class="date-2020-07-02" x="641.3053097345132" y="106.95876288659792" width="5" height="308.0412371134021" fill="lightblue" visibility="visible"/><rect class="date-2020-07-02" x="647.9424778761062" y="124.07216494845363" width="5" height="290.92783505154637" fill="lightblue" visibility="visible"/><rect class="date-2020-07-02" x="654.5796460176991" y="98.40206185567013" width="5" height="316.5979381443299" fill="lightblue" visibility="visible"/><rect class="date-2020-07-02" x="661.2168141592921" y="77.01030927835052" width="5" height="337.9896907216495" fill="lightblue" visibility="visible"/><rect class="date-2020-07-02" x="667.8539823008849" y="128.35051546391753" width="5" height="286.64948453608247" fill="lightblue" visibility="visible"/><rect class="date-2020-07-02" x="674.4911504424779" y="132.62886597938143" width="5" height="282.37113402061857" fill="lightblue" visibility="visible"/><rect class="date-2020-07-02" x="681.1283185840708" y="25.670103092783506" width="5" height="389.3298969072165" fill="lightblue" visibility="visible"/><rect class="date-2020-07-02" x="687.7654867256637" y="25.670103092783506" width="5" height="389.3298969072165" fill="lightblue" visibility="visible"/><rect class="date-2020-07-02" x="694.4026548672566" y="0" width="5" height="415" fill="lightblue" visibility="visible"/><rect class="date-2020-07-02" x="701.0398230088496" y="94.12371134020617" width="5" height="320.87628865979383" fill="lightblue" visibility="visible"/><rect class="date-2020-07-02" x="707.6769911504425" y="115.51546391752578" width="5" height="299.4845360824742" fill="lightblue" visibility="visible"/><rect class="date-2020-07-02" x="714.3141592920355" y="196.8041237113402" width="5" height="218.1958762886598" fill="lightblue" visibility="visible"/><rect class="date-2020-07-02" x="720.9513274336283" y="269.5360824742268" width="5" height="145.46391752577318" fill="lightblue" visibility="visible"/><rect class="date-2020-07-02" x="727.5884955752213" y="89.84536082474227" width="5" height="325.1546391752577" fill="lightblue" visibility="visible"/><rect class="date-2020-07-02" x="734.2256637168141" y="183.96907216494844" width="5" height="231.03092783505156" fill="lightblue" visibility="visible"/><rect class="date-2020-07-02" x="740.862831858407" y="385.0515463917526" width="5" height="29.948453608247405" fill="lightblue" visibility="visible"/><rect class="date-2020-07-02" x="747.5" y="415" width="5" height="0" fill="lightblue" visibility="visible"/><rect class="date-2020-03-11" x="-2.5" y="410.7216494845361" width="5" height="4.278350515463899" fill="blue" visibility="visible"/><rect class="date-2020-03-12" x="4.1371681415929205" y="410.7216494845361" width="5" height="4.278350515463899" fill="blue" visibility="visible"/><rect class="date-2020-03-13" x="10.774336283185841" y="410.7216494845361" width="5" height="4.278350515463899" fill="blue" visibility="visible"/><rect class="date-2020-03-16" x="30.6858407079646" y="406.44329896907215" width="5" height="8.556701030927854" fill="blue" visibility="visible"/><rect class="date-2020-03-17" x="37.323008849557525" y="402.16494845360825" width="5" height="12.835051546391753" fill="blue" visibility="visible"/><rect class="date-2020-03-18" x="43.96017699115044" y="393.6082474226804" width="5" height="21.391752577319608" fill="blue" visibility="visible"/><rect class="date-2020-03-19" x="50.597345132743364" y="389.3298969072165" width="5" height="25.670103092783506" fill="blue" visibility="visible"/><rect class="date-2020-03-20" x="57.23451327433628" y="406.44329896907215" width="5" height="8.556701030927854" fill="blue" visibility="visible"/><rect class="date-2020-03-21" x="63.8716814159292" y="393.6082474226804" width="5" height="21.391752577319608" fill="blue" visibility="visible"/><rect class="date-2020-03-22" x="70.50884955752213" y="385.0515463917526" width="5" height="29.948453608247405" fill="blue" visibility="visible"/><rect class="date-2020-03-23" x="77.14601769911505" y="367.9381443298969" width="5" height="47.061855670103114" fill="blue" visibility="visible"/><rect class="date-2020-03-24" x="83.78318584070796" y="329.4329896907217" width="5" height="85.56701030927832" fill="blue" visibility="visible"/><rect class="date-2020-03-25" x="90.42035398230088" y="393.6082474226804" width="5" height="21.391752577319608" fill="blue" visibility="visible"/><rect class="date-2020-03-26" x="97.05752212389382" y="359.3814432989691" width="5" height="55.61855670103091" fill="blue" visibility="visible"/><rect class="date-2020-03-27" x="103.69469026548673" y="380.77319587628864" width="5" height="34.22680412371136" fill="blue" visibility="visible"/><rect class="date-2020-03-28" x="110.33185840707965" y="367.9381443298969" width="5" height="47.061855670103114" fill="blue" visibility="visible"/><rect class="date-2020-03-29" x="116.96902654867256" y="410.7216494845361" width="5" height="4.278350515463899" fill="blue" visibility="visible"/><rect class="date-2020-03-30" x="123.6061946902655" y="393.6082474226804" width="5" height="21.391752577319608" fill="blue" visibility="visible"/><rect class="date-2020-03-31" x="130.2433628318584" y="299.4845360824742" width="5" height="115.51546391752578" fill="blue" visibility="visible"/><rect class="date-2020-04-01" x="136.88053097345133" y="273.8144329896907" width="5" height="141.18556701030928" fill="blue" visibility="visible"/><rect class="date-2020-04-02" x="143.51769911504425" y="312.319587628866" width="5" height="102.68041237113403" fill="blue" visibility="visible"/><rect class="date-2020-04-03" x="150.15486725663717" y="303.7628865979382" width="5" height="111.23711340206182" fill="blue" visibility="visible"/><rect class="date-2020-04-04" x="156.7920353982301" y="350.82474226804123" width="5" height="64.17525773195877" fill="blue" visibility="visible"/><rect class="date-2020-04-05" x="163.42920353982302" y="329.4329896907217" width="5" height="85.56701030927832" fill="blue" visibility="visible"/><rect class="date-2020-04-06" x="170.06637168141592" y="303.7628865979382" width="5" height="111.23711340206182" fill="blue" visibility="visible"/><rect class="date-2020-04-07" x="176.70353982300887" y="320.87628865979383" width="5" height="94.12371134020617" fill="blue" visibility="visible"/><rect class="date-2020-04-08" x="183.34070796460176" y="329.4329896907217" width="5" height="85.56701030927832" fill="blue" visibility="visible"/><rect class="date-2020-04-09" x="189.97787610619469" y="282.37113402061857" width="5" height="132.62886597938143" fill="blue" visibility="visible"/><rect class="date-2020-04-10" x="196.61504424778764" y="329.4329896907217" width="5" height="85.56701030927832" fill="blue" visibility="visible"/><rect class="date-2020-04-11" x="203.25221238938053" y="342.2680412371134" width="5" height="72.73195876288662" fill="blue" visibility="visible"/><rect class="date-2020-04-12" x="209.88938053097345" y="320.87628865979383" width="5" height="94.12371134020617" fill="blue" visibility="visible"/><rect class="date-2020-04-13" x="216.52654867256638" y="376.49484536082474" width="5" height="38.50515463917526" fill="blue" visibility="visible"/><rect class="date-2020-04-14" x="223.1637168141593" y="359.3814432989691" width="5" height="55.61855670103091" fill="blue" visibility="visible"/><rect class="date-2020-04-15" x="229.8008849557522" y="350.82474226804123" width="5" height="64.17525773195877" fill="blue" visibility="visible"/><rect class="date-2020-04-16" x="236.43805309734512" y="372.21649484536084" width="5" height="42.78350515463916" fill="blue" visibility="visible"/><rect class="date-2020-04-17" x="243.07522123893807" y="363.659793814433" width="5" height="51.34020618556701" fill="blue" visibility="visible"/><rect class="date-2020-04-18" x="249.712389380531" y="350.82474226804123" width="5" height="64.17525773195877" fill="blue" visibility="visible"/><rect class="date-2020-04-19" x="256.34955752212386" y="316.5979381443299" width="5" height="98.40206185567013" fill="blue" visibility="visible"/><rect class="date-2020-04-20" x="262.9867256637168" y="295.2061855670103" width="5" height="119.79381443298968" fill="blue" visibility="visible"/><rect class="date-2020-04-21" x="269.62389380530976" y="346.54639175257734" width="5" height="68.45360824742266" fill="blue" visibility="visible"/><rect class="date-2020-04-22" x="276.26106194690266" y="325.1546391752577" width="5" height="89.84536082474227" fill="blue" visibility="visible"/><rect class="date-2020-04-23" x="282.89823008849555" y="346.54639175257734" width="5" height="68.45360824742266" fill="blue" visibility="visible"/><rect class="date-2020-04-24" x="289.5353982300885" y="346.54639175257734" width="5" height="68.45360824742266" fill="blue" visibility="visible"/><rect class="date-2020-04-25" x="296.1725663716814" y="359.3814432989691" width="5" height="55.61855670103091" fill="blue" visibility="visible"/><rect class="date-2020-04-26" x="302.80973451327435" y="410.7216494845361" width="5" height="4.278350515463899" fill="blue" visibility="visible"/><rect class="date-2020-04-27" x="309.44690265486724" y="325.1546391752577" width="5" height="89.84536082474227" fill="blue" visibility="visible"/><rect class="date-2020-04-28" x="316.0840707964602" y="320.87628865979383" width="5" height="94.12371134020617" fill="blue" visibility="visible"/><rect class="date-2020-04-29" x="322.7212389380531" y="359.3814432989691" width="5" height="55.61855670103091" fill="blue" visibility="visible"/><rect class="date-2020-04-30" x="329.35840707964604" y="367.9381443298969" width="5" height="47.061855670103114" fill="blue" visibility="visible"/><rect class="date-2020-05-01" x="335.99557522123894" y="389.3298969072165" width="5" height="25.670103092783506" fill="blue" visibility="visible"/><rect class="date-2020-05-02" x="342.63274336283183" y="402.16494845360825" width="5" height="12.835051546391753" fill="blue" visibility="visible"/><rect class="date-2020-05-03" x="349.2699115044248" y="393.6082474226804" width="5" height="21.391752577319608" fill="blue" visibility="visible"/><rect class="date-2020-05-04" x="355.90707964601773" y="329.4329896907217" width="5" height="85.56701030927832" fill="blue" visibility="visible"/><rect class="date-2020-05-05" x="362.54424778761063" y="393.6082474226804" width="5" height="21.391752577319608" fill="blue" visibility="visible"/><rect class="date-2020-05-06" x="369.1814159292035" y="342.2680412371134" width="5" height="72.73195876288662" fill="blue" visibility="visible"/><rect class="date-2020-05-07" x="375.8185840707965" y="385.0515463917526" width="5" height="29.948453608247405" fill="blue" visibility="visible"/><rect class="date-2020-05-08" x="382.45575221238937" y="389.3298969072165" width="5" height="25.670103092783506" fill="blue" visibility="visible"/><rect class="date-2020-05-09" x="389.0929203539823" y="372.21649484536084" width="5" height="42.78350515463916" fill="blue" visibility="visible"/><rect class="date-2020-05-10" x="395.7300884955753" y="376.49484536082474" width="5" height="38.50515463917526" fill="blue" visibility="visible"/><rect class="date-2020-05-11" x="402.3672566371681" y="372.21649484536084" width="5" height="42.78350515463916" fill="blue" visibility="visible"/><rect class="date-2020-05-12" x="409.00442477876106" y="393.6082474226804" width="5" height="21.391752577319608" fill="blue" visibility="visible"/><rect class="date-2020-05-13" x="415.64159292035396" y="385.0515463917526" width="5" height="29.948453608247405" fill="blue" visibility="visible"/><rect class="date-2020-05-14" x="422.2787610619469" y="397.88659793814435" width="5" height="17.113402061855652" fill="blue" visibility="visible"/><rect class="date-2020-05-15" x="428.9159292035398" y="355.1030927835052" width="5" height="59.89690721649481" fill="blue" visibility="visible"/><rect class="date-2020-05-16" x="435.55309734513276" y="359.3814432989691" width="5" height="55.61855670103091" fill="blue" visibility="visible"/><rect class="date-2020-05-17" x="442.1902654867257" y="397.88659793814435" width="5" height="17.113402061855652" fill="blue" visibility="visible"/><rect class="date-2020-05-18" x="448.8274336283186" y="393.6082474226804" width="5" height="21.391752577319608" fill="blue" visibility="visible"/><rect class="date-2020-05-19" x="455.46460176991144" y="397.88659793814435" width="5" height="17.113402061855652" fill="blue" visibility="visible"/><rect class="date-2020-05-20" x="462.1017699115044" y="372.21649484536084" width="5" height="42.78350515463916" fill="blue" visibility="visible"/><rect class="date-2020-05-21" x="468.73893805309734" y="380.77319587628864" width="5" height="34.22680412371136" fill="blue" visibility="visible"/><rect class="date-2020-05-22" x="475.37610619469024" y="389.3298969072165" width="5" height="25.670103092783506" fill="blue" visibility="visible"/><rect class="date-2020-05-23" x="482.0132743362832" y="389.3298969072165" width="5" height="25.670103092783506" fill="blue" visibility="visible"/><rect class="date-2020-05-24" x="488.65044247787614" y="406.44329896907215" width="5" height="8.556701030927854" fill="blue" visibility="visible"/><rect class="date-2020-05-25" x="495.28761061946904" y="406.44329896907215" width="5" height="8.556701030927854" fill="blue" visibility="visible"/><rect class="date-2020-05-26" x="501.924778761062" y="380.77319587628864" width="5" height="34.22680412371136" fill="blue" visibility="visible"/><rect class="date-2020-05-27" x="508.5619469026548" y="393.6082474226804" width="5" height="21.391752577319608" fill="blue" visibility="visible"/><rect class="date-2020-05-28" x="515.1991150442477" y="385.0515463917526" width="5" height="29.948453608247405" fill="blue" visibility="visible"/><rect class="date-2020-05-29" x="521.8362831858407" y="389.3298969072165" width="5" height="25.670103092783506" fill="blue" visibility="visible"/><rect class="date-2020-05-30" x="528.4734513274336" y="393.6082474226804" width="5" height="21.391752577319608" fill="blue" visibility="visible"/><rect class="date-2020-05-31" x="535.1106194690266" y="389.3298969072165" width="5" height="25.670103092783506" fill="blue" visibility="visible"/><rect class="date-2020-06-01" x="541.7477876106195" y="397.88659793814435" width="5" height="17.113402061855652" fill="blue" visibility="visible"/><rect class="date-2020-06-02" x="548.3849557522124" y="385.0515463917526" width="5" height="29.948453608247405" fill="blue" visibility="visible"/><rect class="date-2020-06-03" x="555.0221238938053" y="397.88659793814435" width="5" height="17.113402061855652" fill="blue" visibility="visible"/><rect class="date-2020-06-04" x="561.6592920353982" y="410.7216494845361" width="5" height="4.278350515463899" fill="blue" visibility="visible"/><rect class="date-2020-06-05" x="568.2964601769911" y="385.0515463917526" width="5" height="29.948453608247405" fill="blue" visibility="visible"/><rect class="date-2020-06-06" x="574.933628318584" y="402.16494845360825" width="5" height="12.835051546391753" fill="blue" visibility="visible"/><rect class="date-2020-06-07" x="581.570796460177" y="402.16494845360825" width="5" height="12.835051546391753" fill="blue" visibility="visible"/><rect class="date-2020-06-08" x="588.20796460177" y="397.88659793814435" width="5" height="17.113402061855652" fill="blue" visibility="visible"/><rect class="date-2020-06-09" x="594.8451327433628" y="402.16494845360825" width="5" height="12.835051546391753" fill="blue" visibility="visible"/><rect class="date-2020-06-10" x="601.4823008849557" y="363.659793814433" width="5" height="51.34020618556701" fill="blue" visibility="visible"/><rect class="date-2020-06-11" x="608.1194690265487" y="393.6082474226804" width="5" height="21.391752577319608" fill="blue" visibility="visible"/><rect class="date-2020-06-12" x="614.7566371681415" y="385.0515463917526" width="5" height="29.948453608247405" fill="blue" visibility="visible"/><rect class="date-2020-06-13" x="621.3938053097345" y="397.88659793814435" width="5" height="17.113402061855652" fill="blue" visibility="visible"/><rect class="date-2020-06-14" x="628.0309734513274" y="380.77319587628864" width="5" height="34.22680412371136" fill="blue" visibility="visible"/><rect class="date-2020-06-15" x="634.6681415929204" y="402.16494845360825" width="5" height="12.835051546391753" fill="blue" visibility="visible"/><rect class="date-2020-06-16" x="641.3053097345132" y="393.6082474226804" width="5" height="21.391752577319608" fill="blue" visibility="visible"/><rect class="date-2020-06-17" x="647.9424778761062" y="385.0515463917526" width="5" height="29.948453608247405" fill="blue" visibility="visible"/><rect class="date-2020-06-18" x="654.5796460176991" y="380.77319587628864" width="5" height="34.22680412371136" fill="blue" visibility="visible"/><rect class="date-2020-06-19" x="661.2168141592921" y="397.88659793814435" width="5" height="17.113402061855652" fill="blue" visibility="visible"/><rect class="date-2020-06-20" x="667.8539823008849" y="406.44329896907215" width="5" height="8.556701030927854" fill="blue" visibility="visible"/><rect class="date-2020-06-21" x="674.4911504424779" y="397.88659793814435" width="5" height="17.113402061855652" fill="blue" visibility="visible"/><rect class="date-2020-06-22" x="681.1283185840708" y="397.88659793814435" width="5" height="17.113402061855652" fill="blue" visibility="visible"/><rect class="date-2020-06-23" x="687.7654867256637" y="389.3298969072165" width="5" height="25.670103092783506" fill="blue" visibility="visible"/><rect class="date-2020-06-24" x="694.4026548672566" y="389.3298969072165" width="5" height="25.670103092783506" fill="blue" visibility="visible"/><rect class="date-2020-06-25" x="701.0398230088496" y="359.3814432989691" width="5" height="55.61855670103091" fill="blue" visibility="visible"/><rect class="date-2020-06-26" x="707.6769911504425" y="380.77319587628864" width="5" height="34.22680412371136" fill="blue" visibility="visible"/><rect class="date-2020-06-27" x="714.3141592920355" y="389.3298969072165" width="5" height="25.670103092783506" fill="blue" visibility="visible"/><rect class="date-2020-06-28" x="720.9513274336283" y="410.7216494845361" width="5" height="4.278350515463899" fill="blue" visibility="visible"/><rect class="date-2020-06-29" x="727.5884955752213" y="389.3298969072165" width="5" height="25.670103092783506" fill="blue" visibility="visible"/><rect class="date-2020-06-30" x="734.2256637168141" y="410.7216494845361" width="5" height="4.278350515463899" fill="blue" visibility="visible"/><rect class="date-2020-07-01" x="740.862831858407" y="415" width="5" height="0" fill="blue" visibility="visible"/><rect class="date-2020-07-02" x="747.5" y="415" width="5" height="0" fill="blue" visibility="visible"/><g class="axis" transform="translate(0,415)" fill="none" font-size="10" font-family="sans-serif" text-anchor="middle"><path class="domain" stroke="currentColor" d="M0.5,6V0.5H750.5V6"/><g class="tick" opacity="1" transform="translate(27.048672566371682,0)"><line stroke="currentColor" y2="6"/><text fill="currentColor" y="9" dy="0.71em">Mar 15</text></g><g class="tick" opacity="1" transform="translate(73.50884955752213,0)"><line stroke="currentColor" y2="6"/><text fill="currentColor" y="9" dy="0.71em">Mar 22</text></g><g class="tick" opacity="1" transform="translate(119.96902654867256,0)"><line stroke="currentColor" y2="6"/><text fill="currentColor" y="9" dy="0.71em">Mar 29</text></g><g class="tick" opacity="1" transform="translate(166.15265486725664,0)"><line stroke="currentColor" y2="6"/><text fill="currentColor" y="9" dy="0.71em">Apr 05</text></g><g class="tick" opacity="1" transform="translate(212.61283185840708,0)"><line stroke="currentColor" y2="6"/><text fill="currentColor" y="9" dy="0.71em">Apr 12</text></g><g class="tick" opacity="1" transform="translate(259.07300884955754,0)"><line stroke="currentColor" y2="6"/><text fill="currentColor" y="9" dy="0.71em">Apr 19</text></g><g class="tick" opacity="1" transform="translate(305.533185840708,0)"><line stroke="currentColor" y2="6"/><text fill="currentColor" y="9" dy="0.71em">Apr 26</text></g><g class="tick" opacity="1" transform="translate(351.9933628318584,0)"><line stroke="currentColor" y2="6"/><text fill="currentColor" y="9" dy="0.71em">May 03</text></g><g class="tick" opacity="1" transform="translate(398.45353982300884,0)"><line stroke="currentColor" y2="6"/><text fill="currentColor" y="9" dy="0.71em">May 10</text></g><g class="tick" opacity="1" transform="translate(444.9137168141593,0)"><line stroke="currentColor" y2="6"/><text fill="currentColor" y="9" dy="0.71em">May 17</text></g><g class="tick" opacity="1" transform="translate(491.3738938053097,0)"><line stroke="currentColor" y2="6"/><text fill="currentColor" y="9" dy="0.71em">May 24</text></g><g class="tick" opacity="1" transform="translate(537.8340707964602,0)"><line stroke="currentColor" y2="6"/><text fill="currentColor" y="9" dy="0.71em">May 31</text></g><g class="tick" opacity="1" transform="translate(584.2942477876106,0)"><line stroke="currentColor" y2="6"/><text fill="currentColor" y="9" dy="0.71em">Jun 07</text></g><g class="tick" opacity="1" transform="translate(630.7544247787611,0)"><line stroke="currentColor" y2="6"/><text fill="currentColor" y="9" dy="0.71em">Jun 14</text></g><g class="tick" opacity="1" transform="translate(677.2146017699115,0)"><line stroke="currentColor" y2="6"/><text fill="currentColor" y="9" dy="0.71em">Jun 21</text></g><g class="tick" opacity="1" transform="translate(723.6747787610619,0)"><line stroke="currentColor" y2="6"/><text fill="currentColor" y="9" dy="0.71em">Jun 28</text></g></g><g class="axis" transform="translate(0,0)" fill="none" font-size="10" font-family="sans-serif" text-anchor="end"><path class="domain" stroke="currentColor" d="M-6,415.5H0.5V0.5H-6"/><g class="tick" opacity="1" transform="translate(0,415.5)"><line stroke="currentColor" x2="-6"/><text fill="currentColor" x="-9" dy="0.32em">0</text></g><g class="tick" opacity="1" transform="translate(0,372.71649484536084)"><line stroke="currentColor" x2="-6"/><text fill="currentColor" x="-9" dy="0.32em">10</text></g><g class="tick" opacity="1" transform="translate(0,329.9329896907217)"><line stroke="currentColor" x2="-6"/><text fill="currentColor" x="-9" dy="0.32em">20</text></g><g class="tick" opacity="1" transform="translate(0,287.14948453608247)"><line stroke="currentColor" x2="-6"/><text fill="currentColor" x="-9" dy="0.32em">30</text></g><g class="tick" opacity="1" transform="translate(0,244.3659793814433)"><line stroke="currentColor" x2="-6"/><text fill="currentColor" x="-9" dy="0.32em">40</text></g><g class="tick" opacity="1" transform="translate(0,201.58247422680415)"><line stroke="currentColor" x2="-6"/><text fill="currentColor" x="-9" dy="0.32em">50</text></g><g class="tick" opacity="1" transform="translate(0,158.79896907216494)"><line stroke="currentColor" x2="-6"/><text fill="currentColor" x="-9" dy="0.32em">60</text></g><g class="tick" opacity="1" transform="translate(0,116.01546391752578)"><line stroke="currentColor" x2="-6"/><text fill="currentColor" x="-9" dy="0.32em">70</text></g><g class="tick" opacity="1" transform="translate(0,73.23195876288662)"><line stroke="currentColor" x2="-6"/><text fill="currentColor" x="-9" dy="0.32em">80</text></g><g class="tick" opacity="1" transform="translate(0,30.44845360824741)"><line stroke="currentColor" x2="-6"/><text fill="currentColor" x="-9" dy="0.32em">90</text></g></g><g><text x="20" y="-20" font-family="sans-serif" font-size="24px" alignment-baseline="hanging">Daily covid-19 cases in Leicester</text></g><g><rect x="20" y="10" width="10" height="10" fill="blue"/></g><g><text x="40" y="10" font-family="sans-serif" font-size="12px" alignment-baseline="hanging" class="caption">Pillar 1</text></g><g><rect x="20" y="30" width="10" height="10" fill="lightblue"/></g><g><text x="40" y="30" font-family="sans-serif" font-size="12px" alignment-baseline="hanging" class="caption">Pillar 2</text></g><g><text x="450" y="445" font-family="sans-serif" font-size="12px" alignment-baseline="hanging" class="caption">Data source: Public Health England. Graphic: Tom White</text></g></g></svg>