<?xml version="1.0" standalone="no"?><!DOCTYPE svg PUBLIC "-//W3C//DTD SVG 1.1//EN" "http://www.w3.org/Graphics/SVG/1.1/DTD/svg11.dtd"><svg width="800" height="550" version="1.1" xmlns="http://www.w3.org/2000/svg" xmlns:xlink="http://www.w3.org/1999/xlink"><defs xmlns="http://www.w3.org/1999/xhtml"><style type="text/css"><![CDATA[
.axis { font-family: sans-serif; font-size: 14px; }
.label { stroke-width: 0; font-family: sans-serif; font-size: 14px; }]]></style></defs><g transform="translate(40,50)"><g><g fill="#4e79a7"><rect x="41.876832844574835" y="374" height="36" width="16.89149560117302"><title>10% U
1963-1986</title></rect><rect x="60.64516129032263" y="362" height="48" width="16.89149560117302"><title>13.4% U
1989</title></rect><rect x="79.41348973607043" y="366" height="44" width="16.89149560117302"><title>12.3% U
1990</title></rect><rect x="98.18181818181823" y="369" height="41" width="16.89149560117302"><title>11.5% U
1991</title></rect><rect x="116.95014662756603" y="373" height="37" width="16.89149560117302"><title>10.4% U
1992</title></rect><rect x="135.7184750733138" y="375" height="35" width="16.89149560117302"><title>9.6% U
1993</title></rect><rect x="154.48680351906162" y="381" height="29" width="16.89149560117302"><title>8.1% U
1994</title></rect><rect x="173.25513196480944" y="383" height="27" width="16.89149560117302"><title>7.5% U
1995</title></rect><rect x="192.02346041055722" y="387" height="23" width="16.89149560117302"><title>6.4% U
1996</title></rect><rect x="210.791788856305" y="390" height="20" width="16.89149560117302"><title>5.5% U
1997</title></rect><rect x="229.56011730205282" y="392" height="18" width="16.89149560117302"><title>5% U
1998</title></rect><rect x="248.32844574780063" y="393" height="17" width="16.89149560117302"><title>4.6% U
1999</title></rect><rect x="267.0967741935484" y="395" height="15" width="16.89149560117302"><title>4.3% U
2000</title></rect><rect x="285.8651026392962" y="396" height="14" width="16.89149560117302"><title>3.9% U
2001</title></rect><rect x="304.63343108504404" y="389" height="21" width="16.89149560117302"><title>5.7% U
2002</title></rect><rect x="323.4017595307918" y="393" height="17" width="16.89149560117302"><title>4.6% U
2003</title></rect><rect x="342.1700879765396" y="396" height="14" width="16.89149560117302"><title>4% U
2004</title></rect><rect x="360.9384164222874" y="396" height="14" width="16.89149560117302"><title>3.8% U
2005</title></rect><rect x="379.7067448680352" y="398" height="12" width="16.89149560117302"><title>3.4% U
2006</title></rect><rect x="398.475073313783" y="399" height="11" width="16.89149560117302"><title>3.1% U
2007</title></rect><rect x="417.2434017595308" y="400" height="10" width="16.89149560117302"><title>2.8% U
2008</title></rect><rect x="436.0117302052786" y="401" height="9" width="16.89149560117302"><title>2.5% U
2009</title></rect><rect x="454.7800586510264" y="401" height="9" width="16.89149560117302"><title>2.4% U
2010</title></rect><rect x="473.5483870967742" y="402" height="8" width="16.89149560117302"><title>2.2% U
2011</title></rect><rect x="492.316715542522" y="403" height="7" width="16.89149560117302"><title>2% U
2012</title></rect><rect x="511.0850439882698" y="403" height="7" width="16.89149560117302"><title>1.9% U
2013</title></rect><rect x="529.8533724340175" y="403" height="7" width="16.89149560117302"><title>2% U
2014</title></rect><rect x="548.6217008797654" y="403" height="7" width="16.89149560117302"><title>1.9% U
2015</title></rect><rect x="567.3900293255133" y="403" height="7" width="16.89149560117302"><title>1.9% U
2016</title></rect><rect x="586.1583577712611" y="402" height="8" width="16.89149560117302"><title>2.1% U
2017</title></rect><rect x="604.9266862170089" y="401" height="9" width="16.89149560117302"><title>2.4% U
2018</title></rect><rect x="623.6950146627566" y="401" height="9" width="16.89149560117302"><title>2.4% U
2019</title></rect><rect x="642.4633431085044" y="404" height="6" width="16.89149560117302"><title>1.7% U
2020 Algorithm</title></rect><rect x="661.2316715542522" y="409" height="1" width="16.89149560117302"><title>0.3% U
2020 Teacher</title></rect></g><g fill="#f28e2c"><rect x="41.876832844574835" y="302" height="72" width="16.89149560117302"><title>20% N
1963-1986</title></rect><rect x="60.64516129032263" y="323" height="39" width="16.89149560117302"><title>10.9% N
1989</title></rect><rect x="79.41348973607043" y="327" height="39" width="16.89149560117302"><title>10.7% N
1990</title></rect><rect x="98.18181818181823" y="331" height="38" width="16.89149560117302"><title>10.5% N
1991</title></rect><rect x="116.95014662756603" y="337" height="36" width="16.89149560117302"><title>9.8% N
1992</title></rect><rect x="135.7184750733138" y="342" height="33" width="16.89149560117302"><title>9.3% N
1993</title></rect><rect x="154.48680351906162" y="349" height="32" width="16.89149560117302"><title>8.8% N
1994</title></rect><rect x="173.25513196480944" y="353" height="30" width="16.89149560117302"><title>8.4% N
1995</title></rect><rect x="192.02346041055722" y="359" height="28" width="16.89149560117302"><title>7.8% N
1996</title></rect><rect x="210.791788856305" y="364" height="26" width="16.89149560117302"><title>7.4% N
1997</title></rect><rect x="229.56011730205282" y="366" height="26" width="16.89149560117302"><title>7.2% N
1998</title></rect><rect x="248.32844574780063" y="369" height="24" width="16.89149560117302"><title>6.9% N
1999</title></rect><rect x="267.0967741935484" y="371" height="24" width="16.89149560117302"><title>6.6% N
2000</title></rect><rect x="285.8651026392962" y="373" height="23" width="16.89149560117302"><title>6.3% N
2001</title></rect><rect x="304.63343108504404" height="NaN" width="16.89149560117302"><title>N/A% N
2002</title></rect><rect x="323.4017595307918" height="NaN" width="16.89149560117302"><title>N/A% N
2003</title></rect><rect x="342.1700879765396" height="NaN" width="16.89149560117302"><title>N/A% N
2004</title></rect><rect x="360.9384164222874" height="NaN" width="16.89149560117302"><title>N/A% N
2005</title></rect><rect x="379.7067448680352" height="NaN" width="16.89149560117302"><title>N/A% N
2006</title></rect><rect x="398.475073313783" height="NaN" width="16.89149560117302"><title>N/A% N
2007</title></rect><rect x="417.2434017595308" height="NaN" width="16.89149560117302"><title>N/A% N
2008</title></rect><rect x="436.0117302052786" height="NaN" width="16.89149560117302"><title>N/A% N
2009</title></rect><rect x="454.7800586510264" height="NaN" width="16.89149560117302"><title>N/A% N
2010</title></rect><rect x="473.5483870967742" height="NaN" width="16.89149560117302"><title>N/A% N
2011</title></rect><rect x="492.316715542522" height="NaN" width="16.89149560117302"><title>N/A% N
2012</title></rect><rect x="511.0850439882698" height="NaN" width="16.89149560117302"><title>N/A% N
2013</title></rect><rect x="529.8533724340175" height="NaN" width="16.89149560117302"><title>N/A% N
2014</title></rect><rect x="548.6217008797654" height="NaN" width="16.89149560117302"><title>N/A% N
2015</title></rect><rect x="567.3900293255133" height="NaN" width="16.89149560117302"><title>N/A% N
2016</title></rect><rect x="586.1583577712611" height="NaN" width="16.89149560117302"><title>N/A% N
2017</title></rect><rect x="604.9266862170089" height="NaN" width="16.89149560117302"><title>N/A% N
2018</title></rect><rect x="623.6950146627566" height="NaN" width="16.89149560117302"><title>N/A% N
2019</title></rect><rect x="642.4633431085044" height="NaN" width="16.89149560117302"><title>N/A% N
2020 Algorithm</title></rect><rect x="661.2316715542522" height="NaN" width="16.89149560117302"><title>N/A% N
2020 Teacher</title></rect></g><g fill="#e15759"><rect x="41.876832844574835" y="230" height="72" width="16.89149560117302"><title>20% E
1963-1986</title></rect><rect x="60.64516129032263" y="267" height="56" width="16.89149560117302"><title>15.3% E
1989</title></rect><rect x="79.41348973607043" y="272" height="55" width="16.89149560117302"><title>15.2% E
1990</title></rect><rect x="98.18181818181823" y="275" height="56" width="16.89149560117302"><title>15.6% E
1991</title></rect><rect x="116.95014662756603" y="282" height="55" width="16.89149560117302"><title>15.3% E
1992</title></rect><rect x="135.7184750733138" y="289" height="53" width="16.89149560117302"><title>14.8% E
1993</title></rect><rect x="154.48680351906162" y="297" height="52" width="16.89149560117302"><title>14.4% E
1994</title></rect><rect x="173.25513196480944" y="302" height="51" width="16.89149560117302"><title>14.1% E
1995</title></rect><rect x="192.02346041055722" y="310" height="49" width="16.89149560117302"><title>13.7% E
1996</title></rect><rect x="210.791788856305" y="315" height="49" width="16.89149560117302"><title>13.4% E
1997</title></rect><rect x="229.56011730205282" y="319" height="47" width="16.89149560117302"><title>13% E
1998</title></rect><rect x="248.32844574780063" y="323" height="46" width="16.89149560117302"><title>12.7% E
1999</title></rect><rect x="267.0967741935484" y="326" height="45" width="16.89149560117302"><title>12.4% E
2000</title></rect><rect x="285.8651026392962" y="329" height="44" width="16.89149560117302"><title>12.4% E
2001</title></rect><rect x="304.63343108504404" y="350" height="39" width="16.89149560117302"><title>10.9% E
2002</title></rect><rect x="323.4017595307918" y="357" height="36" width="16.89149560117302"><title>10.1% E
2003</title></rect><rect x="342.1700879765396" y="361" height="35" width="16.89149560117302"><title>9.5% E
2004</title></rect><rect x="360.9384164222874" y="364" height="32" width="16.89149560117302"><title>9.1% E
2005</title></rect><rect x="379.7067448680352" y="366" height="32" width="16.89149560117302"><title>8.7% E
2006</title></rect><rect x="398.475073313783" y="370" height="29" width="16.89149560117302"><title>8.1% E
2007</title></rect><rect x="417.2434017595308" y="373" height="27" width="16.89149560117302"><title>7.6% E
2008</title></rect><rect x="436.0117302052786" y="375" height="26" width="16.89149560117302"><title>7.2% E
2009</title></rect><rect x="454.7800586510264" y="376" height="25" width="16.89149560117302"><title>7% E
2010</title></rect><rect x="473.5483870967742" y="379" height="23" width="16.89149560117302"><title>6.5% E
2011</title></rect><rect x="492.316715542522" y="379" height="24" width="16.89149560117302"><title>6.5% E
2012</title></rect><rect x="511.0850439882698" y="381" height="22" width="16.89149560117302"><title>6.2% E
2013</title></rect><rect x="529.8533724340175" y="379" height="24" width="16.89149560117302"><title>6.5% E
2014</title></rect><rect x="548.6217008797654" y="381" height="22" width="16.89149560117302"><title>6.1% E
2015</title></rect><rect x="567.3900293255133" y="382" height="21" width="16.89149560117302"><title>5.9% E
2016</title></rect><rect x="586.1583577712611" y="381" height="21" width="16.89149560117302"><title>5.9% E
2017</title></rect><rect x="604.9266862170089" y="379" height="22" width="16.89149560117302"><title>6.1% E
2018</title></rect><rect x="623.6950146627566" y="378" height="23" width="16.89149560117302"><title>6.6% E
2019</title></rect><rect x="642.4633431085044" y="383" height="21" width="16.89149560117302"><title>5.8% E
2020 Algorithm</title></rect><rect x="661.2316715542522" y="399" height="10" width="16.89149560117302"><title>2.7% E
2020 Teacher</title></rect></g><g fill="#76b7b2"><rect x="41.876832844574835" y="176" height="54" width="16.89149560117302"><title>15% D
1963-1986</title></rect><rect x="60.64516129032263" y="205" height="62" width="16.89149560117302"><title>17.4% D
1989</title></rect><rect x="79.41348973607043" y="209" height="63" width="16.89149560117302"><title>17.7% D
1990</title></rect><rect x="98.18181818181823" y="209" height="66" width="16.89149560117302"><title>18.1% D
1991</title></rect><rect x="116.95014662756603" y="217" height="65" width="16.89149560117302"><title>18% D
1992</title></rect><rect x="135.7184750733138" y="224" height="65" width="16.89149560117302"><title>18.1% D
1993</title></rect><rect x="154.48680351906162" y="232" height="65" width="16.89149560117302"><title>18.1% D
1994</title></rect><rect x="173.25513196480944" y="237" height="65" width="16.89149560117302"><title>18.1% D
1995</title></rect><rect x="192.02346041055722" y="244" height="66" width="16.89149560117302"><title>18.3% D
1996</title></rect><rect x="210.791788856305" y="249" height="66" width="16.89149560117302"><title>18.5% D
1997</title></rect><rect x="229.56011730205282" y="253" height="66" width="16.89149560117302"><title>18.3% D
1998</title></rect><rect x="248.32844574780063" y="257" height="66" width="16.89149560117302"><title>18.3% D
1999</title></rect><rect x="267.0967741935484" y="260" height="66" width="16.89149560117302"><title>18.5% D
2000</title></rect><rect x="285.8651026392962" y="263" height="66" width="16.89149560117302"><title>18.1% D
2001</title></rect><rect x="304.63343108504404" y="285" height="65" width="16.89149560117302"><title>18.1% D
2002</title></rect><rect x="323.4017595307918" y="293" height="64" width="16.89149560117302"><title>17.8% D
2003</title></rect><rect x="342.1700879765396" y="298" height="63" width="16.89149560117302"><title>17.5% D
2004</title></rect><rect x="360.9384164222874" y="302" height="62" width="16.89149560117302"><title>17.2% D
2005</title></rect><rect x="379.7067448680352" y="307" height="59" width="16.89149560117302"><title>16.6% D
2006</title></rect><rect x="398.475073313783" y="312" height="58" width="16.89149560117302"><title>16% D
2007</title></rect><rect x="417.2434017595308" y="316" height="57" width="16.89149560117302"><title>15.7% D
2008</title></rect><rect x="436.0117302052786" y="320" height="55" width="16.89149560117302"><title>15.2% D
2009</title></rect><rect x="454.7800586510264" y="321" height="55" width="16.89149560117302"><title>15.2% D
2010</title></rect><rect x="473.5483870967742" y="324" height="55" width="16.89149560117302"><title>15.1% D
2011</title></rect><rect x="492.316715542522" y="326" height="53" width="16.89149560117302"><title>14.9% D
2012</title></rect><rect x="511.0850439882698" y="328" height="53" width="16.89149560117302"><title>14.7% D
2013</title></rect><rect x="529.8533724340175" y="326" height="53" width="16.89149560117302"><title>14.8% D
2014</title></rect><rect x="548.6217008797654" y="328" height="53" width="16.89149560117302"><title>14.7% D
2015</title></rect><rect x="567.3900293255133" y="329" height="53" width="16.89149560117302"><title>14.6% D
2016</title></rect><rect x="586.1583577712611" y="329" height="52" width="16.89149560117302"><title>14.6% D
2017</title></rect><rect x="604.9266862170089" y="327" height="52" width="16.89149560117302"><title>14.5% D
2018</title></rect><rect x="623.6950146627566" y="323" height="55" width="16.89149560117302"><title>15.2% D
2019</title></rect><rect x="642.4633431085044" y="332" height="51" width="16.89149560117302"><title>14.1% D
2020 Algorithm</title></rect><rect x="661.2316715542522" y="366" height="33" width="16.89149560117302"><title>9.1% D
2020 Teacher</title></rect></g><g fill="#59a14f"><rect x="41.876832844574835" y="140" height="36" width="16.89149560117302"><title>10% C
1963-1986</title></rect><rect x="60.64516129032263" y="146" height="59" width="16.89149560117302"><title>16.4% C
1989</title></rect><rect x="79.41348973607043" y="148" height="61" width="16.89149560117302"><title>16.9% C
1990</title></rect><rect x="98.18181818181823" y="149" height="60" width="16.89149560117302"><title>16.9% C
1991</title></rect><rect x="116.95014662756603" y="155" height="62" width="16.89149560117302"><title>17.4% C
1992</title></rect><rect x="135.7184750733138" y="160" height="64" width="16.89149560117302"><title>17.7% C
1993</title></rect><rect x="154.48680351906162" y="165" height="67" width="16.89149560117302"><title>18.6% C
1994</title></rect><rect x="173.25513196480944" y="168" height="69" width="16.89149560117302"><title>19% C
1995</title></rect><rect x="192.02346041055722" y="172" height="72" width="16.89149560117302"><title>19.8% C
1996</title></rect><rect x="210.791788856305" y="176" height="73" width="16.89149560117302"><title>20.3% C
1997</title></rect><rect x="229.56011730205282" y="179" height="74" width="16.89149560117302"><title>20.8% C
1998</title></rect><rect x="248.32844574780063" y="181" height="76" width="16.89149560117302"><title>21% C
1999</title></rect><rect x="267.0967741935484" y="183" height="77" width="16.89149560117302"><title>21.2% C
2000</title></rect><rect x="285.8651026392962" y="186" height="77" width="16.89149560117302"><title>21.4% C
2001</title></rect><rect x="304.63343108504404" y="203" height="82" width="16.89149560117302"><title>22.7% C
2002</title></rect><rect x="323.4017595307918" y="210" height="83" width="16.89149560117302"><title>23% C
2003</title></rect><rect x="342.1700879765396" y="215" height="83" width="16.89149560117302"><title>23.2% C
2004</title></rect><rect x="360.9384164222874" y="218" height="84" width="16.89149560117302"><title>23.3% C
2005</title></rect><rect x="379.7067448680352" y="223" height="84" width="16.89149560117302"><title>23.2% C
2006</title></rect><rect x="398.475073313783" y="229" height="83" width="16.89149560117302"><title>23.1% C
2007</title></rect><rect x="417.2434017595308" y="233" height="83" width="16.89149560117302"><title>23.1% C
2008</title></rect><rect x="436.0117302052786" y="237" height="83" width="16.89149560117302"><title>23.1% C
2009</title></rect><rect x="454.7800586510264" y="238" height="83" width="16.89149560117302"><title>23.2% C
2010</title></rect><rect x="473.5483870967742" y="239" height="85" width="16.89149560117302"><title>23.6% C
2011</title></rect><rect x="492.316715542522" y="239" height="87" width="16.89149560117302"><title>24% C
2012</title></rect><rect x="511.0850439882698" y="240" height="88" width="16.89149560117302"><title>24.3% C
2013</title></rect><rect x="529.8533724340175" y="239" height="87" width="16.89149560117302"><title>24.3% C
2014</title></rect><rect x="548.6217008797654" y="240" height="88" width="16.89149560117302"><title>24.5% C
2015</title></rect><rect x="567.3900293255133" y="240" height="89" width="16.89149560117302"><title>24.7% C
2016</title></rect><rect x="586.1583577712611" y="241" height="88" width="16.89149560117302"><title>24.3% C
2017</title></rect><rect x="604.9266862170089" y="241" height="86" width="16.89149560117302"><title>24% C
2018</title></rect><rect x="623.6950146627566" y="236" height="87" width="16.89149560117302"><title>24.2% C
2019</title></rect><rect x="642.4633431085044" y="245" height="87" width="16.89149560117302"><title>24.1% C
2020 Algorithm</title></rect><rect x="661.2316715542522" y="288" height="78" width="16.89149560117302"><title>21.8% C
2020 Teacher</title></rect></g><g fill="#edc949"><rect x="41.876832844574835" y="86" height="54" width="16.89149560117302"><title>15% B
1963-1986</title></rect><rect x="60.64516129032263" y="91" height="55" width="16.89149560117302"><title>15.2% B
1989</title></rect><rect x="79.41348973607043" y="92" height="56" width="16.89149560117302"><title>15.5% B
1990</title></rect><rect x="98.18181818181823" y="93" height="56" width="16.89149560117302"><title>15.5% B
1991</title></rect><rect x="116.95014662756603" y="96" height="59" width="16.89149560117302"><title>16.3% B
1992</title></rect><rect x="135.7184750733138" y="100" height="60" width="16.89149560117302"><title>16.7% B
1993</title></rect><rect x="154.48680351906162" y="104" height="61" width="16.89149560117302"><title>17.1% B
1994</title></rect><rect x="173.25513196480944" y="107" height="61" width="16.89149560117302"><title>17.1% B
1995</title></rect><rect x="192.02346041055722" y="108" height="64" width="16.89149560117302"><title>18% B
1996</title></rect><rect x="210.791788856305" y="108" height="68" width="16.89149560117302"><title>18.9% B
1997</title></rect><rect x="229.56011730205282" y="110" height="69" width="16.89149560117302"><title>18.9% B
1998</title></rect><rect x="248.32844574780063" y="113" height="68" width="16.89149560117302"><title>19% B
1999</title></rect><rect x="267.0967741935484" y="114" height="69" width="16.89149560117302"><title>19.2% B
2000</title></rect><rect x="285.8651026392962" y="117" height="69" width="16.89149560117302"><title>19.3% B
2001</title></rect><rect x="304.63343108504404" y="125" height="78" width="16.89149560117302"><title>21.9% B
2002</title></rect><rect x="323.4017595307918" y="128" height="82" width="16.89149560117302"><title>22.9% B
2003</title></rect><rect x="342.1700879765396" y="131" height="84" width="16.89149560117302"><title>23.4% B
2004</title></rect><rect x="360.9384164222874" y="132" height="86" width="16.89149560117302"><title>23.8% B
2005</title></rect><rect x="379.7067448680352" y="137" height="86" width="16.89149560117302"><title>24% B
2006</title></rect><rect x="398.475073313783" y="141" height="88" width="16.89149560117302"><title>24.4% B
2007</title></rect><rect x="417.2434017595308" y="143" height="90" width="16.89149560117302"><title>24.9% B
2008</title></rect><rect x="436.0117302052786" y="146" height="91" width="16.89149560117302"><title>25.3% B
2009</title></rect><rect x="454.7800586510264" y="147" height="91" width="16.89149560117302"><title>25.2% B
2010</title></rect><rect x="473.5483870967742" y="147" height="92" width="16.89149560117302"><title>25.6% B
2011</title></rect><rect x="492.316715542522" y="146" height="93" width="16.89149560117302"><title>26% B
2012</title></rect><rect x="511.0850439882698" y="145" height="95" width="16.89149560117302"><title>26.6% B
2013</title></rect><rect x="529.8533724340175" y="144" height="95" width="16.89149560117302"><title>26.4% B
2014</title></rect><rect x="548.6217008797654" y="143" height="97" width="16.89149560117302"><title>26.9% B
2015</title></rect><rect x="567.3900293255133" y="143" height="97" width="16.89149560117302"><title>27% B
2016</title></rect><rect x="586.1583577712611" y="145" height="96" width="16.89149560117302"><title>26.8% B
2017</title></rect><rect x="604.9266862170089" y="145" height="96" width="16.89149560117302"><title>26.6% B
2018</title></rect><rect x="623.6950146627566" y="142" height="94" width="16.89149560117302"><title>26.1% B
2019</title></rect><rect x="642.4633431085044" y="150" height="95" width="16.89149560117302"><title>26.4% B
2020 Algorithm</title></rect><rect x="661.2316715542522" y="189" height="99" width="16.89149560117302"><title>27.5% B
2020 Teacher</title></rect></g><g fill="#af7aa1"><rect x="41.876832844574835" y="50" height="36" width="16.89149560117302"><title>10% A
1963-1986</title></rect><rect x="60.64516129032263" y="50" height="41" width="16.89149560117302"><title>11.4% A
1989</title></rect><rect x="79.41348973607043" y="50" height="42" width="16.89149560117302"><title>11.7% A
1990</title></rect><rect x="98.18181818181823" y="50" height="43" width="16.89149560117302"><title>11.9% A
1991</title></rect><rect x="116.95014662756603" y="50" height="46" width="16.89149560117302"><title>12.8% A
1992</title></rect><rect x="135.7184750733138" y="50" height="50" width="16.89149560117302"><title>13.8% A
1993</title></rect><rect x="154.48680351906162" y="50" height="54" width="16.89149560117302"><title>14.8% A
1994</title></rect><rect x="173.25513196480944" y="50" height="57" width="16.89149560117302"><title>15.8% A
1995</title></rect><rect x="192.02346041055722" y="50" height="58" width="16.89149560117302"><title>16% A
1996</title></rect><rect x="210.791788856305" y="50" height="58" width="16.89149560117302"><title>16% A
1997</title></rect><rect x="229.56011730205282" y="50" height="60" width="16.89149560117302"><title>16.8% A
1998</title></rect><rect x="248.32844574780063" y="50" height="63" width="16.89149560117302"><title>17.5% A
1999</title></rect><rect x="267.0967741935484" y="50" height="64" width="16.89149560117302"><title>17.8% A
2000</title></rect><rect x="285.8651026392962" y="50" height="67" width="16.89149560117302"><title>18.6% A
2001</title></rect><rect x="304.63343108504404" y="50" height="75" width="16.89149560117302"><title>20.7% A
2002</title></rect><rect x="323.4017595307918" y="50" height="78" width="16.89149560117302"><title>21.6% A
2003</title></rect><rect x="342.1700879765396" y="50" height="81" width="16.89149560117302"><title>22.4% A
2004</title></rect><rect x="360.9384164222874" y="50" height="82" width="16.89149560117302"><title>22.8% A
2005</title></rect><rect x="379.7067448680352" y="50" height="87" width="16.89149560117302"><title>24.1% A
2006</title></rect><rect x="398.475073313783" y="50" height="91" width="16.89149560117302"><title>25.3% A
2007</title></rect><rect x="417.2434017595308" y="50" height="93" width="16.89149560117302"><title>25.9% A
2008</title></rect><rect x="436.0117302052786" y="50" height="96" width="16.89149560117302"><title>26.7% A
2009</title></rect><rect x="454.7800586510264" y="79" height="68" width="16.89149560117302"><title>18.9% A
2010</title></rect><rect x="473.5483870967742" y="80" height="67" width="16.89149560117302"><title>18.8% A
2011</title></rect><rect x="492.316715542522" y="78" height="68" width="16.89149560117302"><title>18.7% A
2012</title></rect><rect x="511.0850439882698" y="77" height="68" width="16.89149560117302"><title>18.7% A
2013</title></rect><rect x="529.8533724340175" y="80" height="64" width="16.89149560117302"><title>17.8% A
2014</title></rect><rect x="548.6217008797654" y="80" height="63" width="16.89149560117302"><title>17.7% A
2015</title></rect><rect x="567.3900293255133" y="79" height="64" width="16.89149560117302"><title>17.8% A
2016</title></rect><rect x="586.1583577712611" y="80" height="65" width="16.89149560117302"><title>18% A
2017</title></rect><rect x="604.9266862170089" y="79" height="66" width="16.89149560117302"><title>18.4% A
2018</title></rect><rect x="623.6950146627566" y="78" height="64" width="16.89149560117302"><title>17.7% A
2019</title></rect><rect x="642.4633431085044" y="82" height="68" width="16.89149560117302"><title>18.9% A
2020 Algorithm</title></rect><rect x="661.2316715542522" y="102" height="87" width="16.89149560117302"><title>24.2% A
2020 Teacher</title></rect></g><g fill="#ff9da7"><rect x="41.876832844574835" height="NaN" width="16.89149560117302"><title>N/A% A*
1963-1986</title></rect><rect x="60.64516129032263" height="NaN" width="16.89149560117302"><title>N/A% A*
1989</title></rect><rect x="79.41348973607043" height="NaN" width="16.89149560117302"><title>N/A% A*
1990</title></rect><rect x="98.18181818181823" height="NaN" width="16.89149560117302"><title>N/A% A*
1991</title></rect><rect x="116.95014662756603" height="NaN" width="16.89149560117302"><title>N/A% A*
1992</title></rect><rect x="135.7184750733138" height="NaN" width="16.89149560117302"><title>N/A% A*
1993</title></rect><rect x="154.48680351906162" height="NaN" width="16.89149560117302"><title>N/A% A*
1994</title></rect><rect x="173.25513196480944" height="NaN" width="16.89149560117302"><title>N/A% A*
1995</title></rect><rect x="192.02346041055722" height="NaN" width="16.89149560117302"><title>N/A% A*
1996</title></rect><rect x="210.791788856305" height="NaN" width="16.89149560117302"><title>N/A% A*
1997</title></rect><rect x="229.56011730205282" height="NaN" width="16.89149560117302"><title>N/A% A*
1998</title></rect><rect x="248.32844574780063" height="NaN" width="16.89149560117302"><title>N/A% A*
1999</title></rect><rect x="267.0967741935484" height="NaN" width="16.89149560117302"><title>N/A% A*
2000</title></rect><rect x="285.8651026392962" height="NaN" width="16.89149560117302"><title>N/A% A*
2001</title></rect><rect x="304.63343108504404" height="NaN" width="16.89149560117302"><title>N/A% A*
2002</title></rect><rect x="323.4017595307918" height="NaN" width="16.89149560117302"><title>N/A% A*
2003</title></rect><rect x="342.1700879765396" height="NaN" width="16.89149560117302"><title>N/A% A*
2004</title></rect><rect x="360.9384164222874" height="NaN" width="16.89149560117302"><title>N/A% A*
2005</title></rect><rect x="379.7067448680352" height="NaN" width="16.89149560117302"><title>N/A% A*
2006</title></rect><rect x="398.475073313783" height="NaN" width="16.89149560117302"><title>N/A% A*
2007</title></rect><rect x="417.2434017595308" height="NaN" width="16.89149560117302"><title>N/A% A*
2008</title></rect><rect x="436.0117302052786" height="NaN" width="16.89149560117302"><title>N/A% A*
2009</title></rect><rect x="454.7800586510264" y="50" height="29" width="16.89149560117302"><title>8.1% A*
2010</title></rect><rect x="473.5483870967742" y="50" height="30" width="16.89149560117302"><title>8.2% A*
2011</title></rect><rect x="492.316715542522" y="50" height="28" width="16.89149560117302"><title>7.9% A*
2012</title></rect><rect x="511.0850439882698" y="50" height="27" width="16.89149560117302"><title>7.6% A*
2013</title></rect><rect x="529.8533724340175" y="50" height="30" width="16.89149560117302"><title>8.2% A*
2014</title></rect><rect x="548.6217008797654" y="50" height="30" width="16.89149560117302"><title>8.2% A*
2015</title></rect><rect x="567.3900293255133" y="50" height="29" width="16.89149560117302"><title>8.1% A*
2016</title></rect><rect x="586.1583577712611" y="50" height="30" width="16.89149560117302"><title>8.3% A*
2017</title></rect><rect x="604.9266862170089" y="50" height="29" width="16.89149560117302"><title>8% A*
2018</title></rect><rect x="623.6950146627566" y="50" height="28" width="16.89149560117302"><title>7.8% A*
2019</title></rect><rect x="642.4633431085044" y="50" height="32" width="16.89149560117302"><title>9% A*
2020 Algorithm</title></rect><rect x="661.2316715542522" y="50" height="52" width="16.89149560117302"><title>14.4% A*
2020 Teacher</title></rect></g></g><g class="axis" transform="translate(0,410)" fill="none" font-size="10" font-family="sans-serif" text-anchor="middle"><g class="tick" opacity="1" transform="translate(69.09090909090915,0)"><line stroke="currentColor" y2="6"/><text fill="currentColor" y="9" dy="0.71em">1989</text></g><g class="tick" opacity="1" transform="translate(181.70087976539594,0)"><line stroke="currentColor" y2="6"/><text fill="currentColor" y="9" dy="0.71em">1995</text></g><g class="tick" opacity="1" transform="translate(275.5425219941349,0)"><line stroke="currentColor" y2="6"/><text fill="currentColor" y="9" dy="0.71em">2000</text></g><g class="tick" opacity="1" transform="translate(369.3841642228739,0)"><line stroke="currentColor" y2="6"/><text fill="currentColor" y="9" dy="0.71em">2005</text></g><g class="tick" opacity="1" transform="translate(463.2258064516129,0)"><line stroke="currentColor" y2="6"/><text fill="currentColor" y="9" dy="0.71em">2010</text></g><g class="tick" opacity="1" transform="translate(557.067448680352,0)"><line stroke="currentColor" y2="6"/><text fill="currentColor" y="9" dy="0.71em">2015</text></g><g class="tick" opacity="1" transform="translate(669.6774193548388,0)"><line stroke="currentColor" y2="6"/><text fill="currentColor" y="9" dy="0.71em">2020 Teacher</text></g></g><g class="axis" transform="translate(0,50)" fill="none" font-size="10" font-family="sans-serif" text-anchor="middle"><g class="tick" opacity="1" transform="translate(50.322580645161345,0)"><line stroke="currentColor" y2="-6"/><text fill="currentColor" y="-9" dy="0em">1963-1986</text></g><g class="tick" opacity="1" transform="translate(650.909090909091,0)"><line stroke="currentColor" y2="-6"/><text fill="currentColor" y="-9" dy="0em">2020 Algorithm</text></g></g><g class="axis" transform="translate(40,0)" fill="none" font-size="10" font-family="sans-serif" text-anchor="end"><g class="tick" opacity="1" transform="translate(0,410.5)"><line stroke="currentColor" x2="-6"/><text fill="currentColor" x="-9" dy="0.32em">100</text></g><g class="tick" opacity="1" transform="translate(0,374.5)"><line stroke="currentColor" x2="-6"/><text fill="currentColor" x="-9" dy="0.32em">90</text></g><g class="tick" opacity="1" transform="translate(0,338.5)"><line stroke="currentColor" x2="-6"/><text fill="currentColor" x="-9" dy="0.32em">80</text></g><g class="tick" opacity="1" transform="translate(0,302.5)"><line stroke="currentColor" x2="-6"/><text fill="currentColor" x="-9" dy="0.32em">70</text></g><g class="tick" opacity="1" transform="translate(0,266.5)"><line stroke="currentColor" x2="-6"/><text fill="currentColor" x="-9" dy="0.32em">60</text></g><g class="tick" opacity="1" transform="translate(0,230.5)"><line stroke="currentColor" x2="-6"/><text fill="currentColor" x="-9" dy="0.32em">50</text></g><g class="tick" opacity="1" transform="translate(0,194.5)"><line stroke="currentColor" x2="-6"/><text fill="currentColor" x="-9" dy="0.32em">40</text></g><g class="tick" opacity="1" transform="translate(0,158.5)"><line stroke="currentColor" x2="-6"/><text fill="currentColor" x="-9" dy="0.32em">30</text></g><g class="tick" opacity="1" transform="translate(0,122.5)"><line stroke="currentColor" x2="-6"/><text fill="currentColor" x="-9" dy="0.32em">20</text></g><g class="tick" opacity="1" transform="translate(0,86.5)"><line stroke="currentColor" x2="-6"/><text fill="currentColor" x="-9" dy="0.32em">10</text></g><g class="tick" opacity="1" transform="translate(0,50.5)"><line stroke="currentColor" x2="-6"/><text fill="currentColor" x="-9" dy="0.32em">0</text></g></g><g class="axis" transform="translate(680,0)" fill="none" font-size="10" font-family="sans-serif" text-anchor="start"><g class="tick" opacity="1" transform="translate(0,410.5)"><line stroke="currentColor" x2="6"/><text fill="currentColor" x="9" dy="0.32em">100</text></g><g class="tick" opacity="1" transform="translate(0,374.5)"><line stroke="currentColor" x2="6"/><text fill="currentColor" x="9" dy="0.32em">90</text></g><g class="tick" opacity="1" transform="translate(0,338.5)"><line stroke="currentColor" x2="6"/><text fill="currentColor" x="9" dy="0.32em">80</text></g><g class="tick" opacity="1" transform="translate(0,302.5)"><line stroke="currentColor" x2="6"/><text fill="currentColor" x="9" dy="0.32em">70</text></g><g class="tick" opacity="1" transform="translate(0,266.5)"><line stroke="currentColor" x2="6"/><text fill="currentColor" x="9" dy="0.32em">60</text></g><g class="tick" opacity="1" transform="translate(0,230.5)"><line stroke="currentColor" x2="6"/><text fill="currentColor" x="9" dy="0.32em">50</text></g><g class="tick" opacity="1" transform="translate(0,194.5)"><line stroke="currentColor" x2="6"/><text fill="currentColor" x="9" dy="0.32em">40</text></g><g class="tick" opacity="1" transform="translate(0,158.5)"><line stroke="currentColor" x2="6"/><text fill="currentColor" x="9" dy="0.32em">30</text></g><g class="tick" opacity="1" transform="translate(0,122.5)"><line stroke="currentColor" x2="6"/><text fill="currentColor" x="9" dy="0.32em">20</text></g><g class="tick" opacity="1" transform="translate(0,86.5)"><line stroke="currentColor" x2="6"/><text fill="currentColor" x="9" dy="0.32em">10</text></g><g class="tick" opacity="1" transform="translate(0,50.5)"><line stroke="currentColor" x2="6"/><text fill="currentColor" x="9" dy="0.32em">0</text></g></g><rect x="720" y="50" width="15" height="15" fill="#ff9da7"/><rect x="720" y="70" width="15" height="15" fill="#af7aa1"/><rect x="720" y="90" width="15" height="15" fill="#edc949"/><rect x="720" y="110" width="15" height="15" fill="#59a14f"/><rect x="720" y="130" width="15" height="15" fill="#76b7b2"/><rect x="720" y="150" width="15" height="15" fill="#e15759"/><rect x="720" y="170" width="15" height="15" fill="#f28e2c"/><rect x="720" y="190" width="15" height="15" fill="#4e79a7"/><text x="740" y="62" class="label">A*</text><text x="740" y="82" class="label">A</text><text x="740" y="102" class="label">B</text><text x="740" y="122" class="label">C</text><text x="740" y="142" class="label">D</text><text x="740" y="162" class="label">E</text><text x="740" y="182" class="label">N</text><text x="740" y="202" class="label">U</text><g><text x="0" y="0" font-family="sans-serif" font-size="24px">A Level grades</text></g><g><text x="0" y="455" font-family="sans-serif" font-size="14px">Graphic: Tom White. Data source: Brian Stubbs</text></g></g></svg>