<?xml version="1.0" standalone="no"?><!DOCTYPE svg PUBLIC "-//W3C//DTD SVG 1.1//EN" "http://www.w3.org/Graphics/SVG/1.1/DTD/svg11.dtd"><svg width="300" height="500" version="1.1" xmlns="http://www.w3.org/2000/svg" xmlns:xlink="http://www.w3.org/1999/xlink"><defs xmlns="http://www.w3.org/1999/xhtml"><style type="text/css"><![CDATA[]]></style></defs><g transform="translate(10,10)"><g transform="translate(173.79310344827587,195.1045737261494)"><polygon points="0,-11.148832784351395 9.655172413793103,-5.5744163921756975 9.655172413793103,5.5744163921756975 0,11.148832784351395 -9.655172413793103,5.5744163921756975 -9.655172413793103,-5.5744163921756975" stroke="white" stroke-width="2" fill="green"><title>Hartlepool</title></polygon></g><g transform="translate(164.13793103448276,211.82782290267647)"><polygon points="0,-11.148832784351395 9.655172413793103,-5.5744163921756975 9.655172413793103,5.5744163921756975 0,11.148832784351395 -9.655172413793103,5.5744163921756975 -9.655172413793103,-5.5744163921756975" stroke="white" stroke-width="2" fill="green"><title>Middlesbrough</title></polygon></g><g transform="translate(183.44827586206898,211.82782290267647)"><polygon points="0,-11.148832784351395 9.655172413793103,-5.5744163921756975 9.655172413793103,5.5744163921756975 0,11.148832784351395 -9.655172413793103,5.5744163921756975 -9.655172413793103,-5.5744163921756975" stroke="white" stroke-width="2" fill="green"><title>Redcar and Cleveland</title></polygon></g><g transform="translate(154.48275862068965,195.1045737261494)"><polygon points="0,-11.148832784351395 9.655172413793103,-5.5744163921756975 9.655172413793103,5.5744163921756975 0,11.148832784351395 -9.655172413793103,5.5744163921756975 -9.655172413793103,-5.5744163921756975" stroke="white" stroke-width="2" fill="green"><title>Stockton-on-Tees</title></polygon></g><g transform="translate(144.82758620689654,211.82782290267647)"><polygon points="0,-11.148832784351395 9.655172413793103,-5.5744163921756975 9.655172413793103,5.5744163921756975 0,11.148832784351395 -9.655172413793103,5.5744163921756975 -9.655172413793103,-5.5744163921756975" stroke="white" stroke-width="2" fill="green"><title>Darlington</title></polygon></g><g transform="translate(106.20689655172413,278.72081960878484)"><polygon points="0,-11.148832784351395 9.655172413793103,-5.5744163921756975 9.655172413793103,5.5744163921756975 0,11.148832784351395 -9.655172413793103,5.5744163921756975 -9.655172413793103,-5.5744163921756975" stroke="white" stroke-width="2" fill="green"><title>Halton</title></polygon></g><g transform="translate(125.51724137931035,245.27432125573068)"><polygon points="0,-11.148832784351395 9.655172413793103,-5.5744163921756975 9.655172413793103,5.5744163921756975 0,11.148832784351395 -9.655172413793103,5.5744163921756975 -9.655172413793103,-5.5744163921756975" stroke="white" stroke-width="2" fill="green"><title>Warrington</title></polygon></g><g transform="translate(135.17241379310343,228.5510720792036)"><polygon points="0,-11.148832784351395 9.655172413793103,-5.5744163921756975 9.655172413793103,5.5744163921756975 0,11.148832784351395 -9.655172413793103,5.5744163921756975 -9.655172413793103,-5.5744163921756975" stroke="white" stroke-width="2" fill="green"><title>Blackburn with Darwen</title></polygon></g><g transform="translate(115.86206896551724,228.5510720792036)"><polygon points="0,-11.148832784351395 9.655172413793103,-5.5744163921756975 9.655172413793103,5.5744163921756975 0,11.148832784351395 -9.655172413793103,5.5744163921756975 -9.655172413793103,-5.5744163921756975" stroke="white" stroke-width="2" fill="green"><title>Blackpool</title></polygon></g><g transform="translate(202.75862068965517,245.27432125573068)"><polygon points="0,-11.148832784351395 9.655172413793103,-5.5744163921756975 9.655172413793103,5.5744163921756975 0,11.148832784351395 -9.655172413793103,5.5744163921756975 -9.655172413793103,-5.5744163921756975" stroke="white" stroke-width="2" fill="green"><title>Kingston upon Hull, City of</title></polygon></g><g transform="translate(193.1034482758621,228.5510720792036)"><polygon points="0,-11.148832784351395 9.655172413793103,-5.5744163921756975 9.655172413793103,5.5744163921756975 0,11.148832784351395 -9.655172413793103,5.5744163921756975 -9.655172413793103,-5.5744163921756975" stroke="white" stroke-width="2" fill="orange"><title>East Riding of Yorkshire</title></polygon></g><g transform="translate(212.41379310344826,261.9975704322578)"><polygon points="0,-11.148832784351395 9.655172413793103,-5.5744163921756975 9.655172413793103,5.5744163921756975 0,11.148832784351395 -9.655172413793103,5.5744163921756975 -9.655172413793103,-5.5744163921756975" stroke="white" stroke-width="2" fill="orange"><title>North East Lincolnshire</title></polygon></g><g transform="translate(193.1034482758621,261.9975704322578)"><polygon points="0,-11.148832784351395 9.655172413793103,-5.5744163921756975 9.655172413793103,5.5744163921756975 0,11.148832784351395 -9.655172413793103,5.5744163921756975 -9.655172413793103,-5.5744163921756975" stroke="white" stroke-width="2" fill="orange"><title>North Lincolnshire</title></polygon></g><g transform="translate(173.79310344827587,228.5510720792036)"><polygon points="0,-11.148832784351395 9.655172413793103,-5.5744163921756975 9.655172413793103,5.5744163921756975 0,11.148832784351395 -9.655172413793103,5.5744163921756975 -9.655172413793103,-5.5744163921756975" stroke="white" stroke-width="2" fill="green"><title>York</title></polygon></g><g transform="translate(154.48275862068965,261.9975704322578)"><polygon points="0,-11.148832784351395 9.655172413793103,-5.5744163921756975 9.655172413793103,5.5744163921756975 0,11.148832784351395 -9.655172413793103,5.5744163921756975 -9.655172413793103,-5.5744163921756975" stroke="white" stroke-width="2" fill="green"><title>Derby</title></polygon></g><g transform="translate(183.44827586206898,312.16731796183905)"><polygon points="0,-11.148832784351395 9.655172413793103,-5.5744163921756975 9.655172413793103,5.5744163921756975 0,11.148832784351395 -9.655172413793103,5.5744163921756975 -9.655172413793103,-5.5744163921756975" stroke="white" stroke-width="2" fill="green"><title>Leicester</title></polygon></g><g transform="translate(193.1034482758621,295.44406878531197)"><polygon points="0,-11.148832784351395 9.655172413793103,-5.5744163921756975 9.655172413793103,5.5744163921756975 0,11.148832784351395 -9.655172413793103,5.5744163921756975 -9.655172413793103,-5.5744163921756975" stroke="white" stroke-width="2" fill="green"><title>Rutland</title></polygon></g><g transform="translate(164.13793103448276,278.72081960878484)"><polygon points="0,-11.148832784351395 9.655172413793103,-5.5744163921756975 9.655172413793103,5.5744163921756975 0,11.148832784351395 -9.655172413793103,5.5744163921756975 -9.655172413793103,-5.5744163921756975" stroke="white" stroke-width="2" fill="green"><title>Nottingham</title></polygon></g><g transform="translate(144.82758620689654,312.16731796183905)"><polygon points="0,-11.148832784351395 9.655172413793103,-5.5744163921756975 9.655172413793103,5.5744163921756975 0,11.148832784351395 -9.655172413793103,5.5744163921756975 -9.655172413793103,-5.5744163921756975" stroke="white" stroke-width="2" fill="orange"><title>Herefordshire, County of</title></polygon></g><g transform="translate(115.86206896551724,295.44406878531197)"><polygon points="0,-11.148832784351395 9.655172413793103,-5.5744163921756975 9.655172413793103,5.5744163921756975 0,11.148832784351395 -9.655172413793103,5.5744163921756975 -9.655172413793103,-5.5744163921756975" stroke="white" stroke-width="2" fill="green"><title>Telford and Wrekin</title></polygon></g><g transform="translate(144.82758620689654,278.72081960878484)"><polygon points="0,-11.148832784351395 9.655172413793103,-5.5744163921756975 9.655172413793103,5.5744163921756975 0,11.148832784351395 -9.655172413793103,5.5744163921756975 -9.655172413793103,-5.5744163921756975" stroke="white" stroke-width="2" fill="green"><title>Stoke-on-Trent</title></polygon></g><g transform="translate(135.17241379310343,362.33706549142033)"><polygon points="0,-11.148832784351395 9.655172413793103,-5.5744163921756975 9.655172413793103,5.5744163921756975 0,11.148832784351395 -9.655172413793103,5.5744163921756975 -9.655172413793103,-5.5744163921756975" stroke="white" stroke-width="2" fill="green"><title>Bath and North East Somerset</title></polygon></g><g transform="translate(144.82758620689654,345.61381631489326)"><polygon points="0,-11.148832784351395 9.655172413793103,-5.5744163921756975 9.655172413793103,5.5744163921756975 0,11.148832784351395 -9.655172413793103,5.5744163921756975 -9.655172413793103,-5.5744163921756975" stroke="white" stroke-width="2" fill="green"><title>Bristol, City of</title></polygon></g><g transform="translate(125.51724137931035,379.0603146679474)"><polygon points="0,-11.148832784351395 9.655172413793103,-5.5744163921756975 9.655172413793103,5.5744163921756975 0,11.148832784351395 -9.655172413793103,5.5744163921756975 -9.655172413793103,-5.5744163921756975" stroke="white" stroke-width="2" fill="green"><title>North Somerset</title></polygon></g><g transform="translate(135.17241379310343,328.8905671383661)"><polygon points="0,-11.148832784351395 9.655172413793103,-5.5744163921756975 9.655172413793103,5.5744163921756975 0,11.148832784351395 -9.655172413793103,5.5744163921756975 -9.655172413793103,-5.5744163921756975" stroke="white" stroke-width="2" fill="orange"><title>South Gloucestershire</title></polygon></g><g transform="translate(106.20689655172413,412.50681302100156)"><polygon points="0,-11.148832784351395 9.655172413793103,-5.5744163921756975 9.655172413793103,5.5744163921756975 0,11.148832784351395 -9.655172413793103,5.5744163921756975 -9.655172413793103,-5.5744163921756975" stroke="white" stroke-width="2" fill="green"><title>Plymouth</title></polygon></g><g transform="translate(125.51724137931035,412.50681302100156)"><polygon points="0,-11.148832784351395 9.655172413793103,-5.5744163921756975 9.655172413793103,5.5744163921756975 0,11.148832784351395 -9.655172413793103,5.5744163921756975 -9.655172413793103,-5.5744163921756975" stroke="white" stroke-width="2" fill="green"><title>Torbay</title></polygon></g><g transform="translate(154.48275862068965,395.7835638444745)"><polygon points="0,-11.148832784351395 9.655172413793103,-5.5744163921756975 9.655172413793103,5.5744163921756975 0,11.148832784351395 -9.655172413793103,5.5744163921756975 -9.655172413793103,-5.5744163921756975" stroke="white" stroke-width="2" fill="green"><title>Bournemouth</title></polygon></g><g transform="translate(135.17241379310343,395.7835638444745)"><polygon points="0,-11.148832784351395 9.655172413793103,-5.5744163921756975 9.655172413793103,5.5744163921756975 0,11.148832784351395 -9.655172413793103,5.5744163921756975 -9.655172413793103,-5.5744163921756975" stroke="white" stroke-width="2" fill="green"><title>Poole</title></polygon></g><g transform="translate(164.13793103448276,345.61381631489326)"><polygon points="0,-11.148832784351395 9.655172413793103,-5.5744163921756975 9.655172413793103,5.5744163921756975 0,11.148832784351395 -9.655172413793103,5.5744163921756975 -9.655172413793103,-5.5744163921756975" stroke="white" stroke-width="2" fill="green"><title>Swindon</title></polygon></g><g transform="translate(231.72413793103448,295.44406878531197)"><polygon points="0,-11.148832784351395 9.655172413793103,-5.5744163921756975 9.655172413793103,5.5744163921756975 0,11.148832784351395 -9.655172413793103,5.5744163921756975 -9.655172413793103,-5.5744163921756975" stroke="white" stroke-width="2" fill="green"><title>Peterborough</title></polygon></g><g transform="translate(231.72413793103448,328.8905671383661)"><polygon points="0,-11.148832784351395 9.655172413793103,-5.5744163921756975 9.655172413793103,5.5744163921756975 0,11.148832784351395 -9.655172413793103,5.5744163921756975 -9.655172413793103,-5.5744163921756975" stroke="white" stroke-width="2" fill="green"><title>Luton</title></polygon></g><g transform="translate(270.3448275862069,328.8905671383661)"><polygon points="0,-11.148832784351395 9.655172413793103,-5.5744163921756975 9.655172413793103,5.5744163921756975 0,11.148832784351395 -9.655172413793103,5.5744163921756975 -9.655172413793103,-5.5744163921756975" stroke="white" stroke-width="2" fill="green"><title>Southend-on-Sea</title></polygon></g><g transform="translate(260.6896551724138,345.61381631489326)"><polygon points="0,-11.148832784351395 9.655172413793103,-5.5744163921756975 9.655172413793103,5.5744163921756975 0,11.148832784351395 -9.655172413793103,5.5744163921756975 -9.655172413793103,-5.5744163921756975" stroke="white" stroke-width="2" fill="green"><title>Thurrock</title></polygon></g><g transform="translate(241.3793103448276,379.0603146679474)"><polygon points="0,-11.148832784351395 9.655172413793103,-5.5744163921756975 9.655172413793103,5.5744163921756975 0,11.148832784351395 -9.655172413793103,5.5744163921756975 -9.655172413793103,-5.5744163921756975" stroke="white" stroke-width="2" fill="green"><title>Medway</title></polygon></g><g transform="translate(202.75862068965517,379.0603146679474)"><polygon points="0,-11.148832784351395 9.655172413793103,-5.5744163921756975 9.655172413793103,5.5744163921756975 0,11.148832784351395 -9.655172413793103,5.5744163921756975 -9.655172413793103,-5.5744163921756975" stroke="white" stroke-width="2" fill="green"><title>Bracknell Forest</title></polygon></g><g transform="translate(173.79310344827587,362.33706549142033)"><polygon points="0,-11.148832784351395 9.655172413793103,-5.5744163921756975 9.655172413793103,5.5744163921756975 0,11.148832784351395 -9.655172413793103,5.5744163921756975 -9.655172413793103,-5.5744163921756975" stroke="white" stroke-width="2" fill="orange"><title>West Berkshire</title></polygon></g><g transform="translate(183.44827586206898,345.61381631489326)"><polygon points="0,-11.148832784351395 9.655172413793103,-5.5744163921756975 9.655172413793103,5.5744163921756975 0,11.148832784351395 -9.655172413793103,5.5744163921756975 -9.655172413793103,-5.5744163921756975" stroke="white" stroke-width="2" fill="green"><title>Reading</title></polygon></g><g transform="translate(222.06896551724137,345.61381631489326)"><polygon points="0,-11.148832784351395 9.655172413793103,-5.5744163921756975 9.655172413793103,5.5744163921756975 0,11.148832784351395 -9.655172413793103,5.5744163921756975 -9.655172413793103,-5.5744163921756975" stroke="white" stroke-width="2" fill="green"><title>Slough</title></polygon></g><g transform="translate(212.41379310344826,362.33706549142033)"><polygon points="0,-11.148832784351395 9.655172413793103,-5.5744163921756975 9.655172413793103,5.5744163921756975 0,11.148832784351395 -9.655172413793103,5.5744163921756975 -9.655172413793103,-5.5744163921756975" stroke="white" stroke-width="2" fill="green"><title>Windsor and Maidenhead</title></polygon></g><g transform="translate(193.1034482758621,362.33706549142033)"><polygon points="0,-11.148832784351395 9.655172413793103,-5.5744163921756975 9.655172413793103,5.5744163921756975 0,11.148832784351395 -9.655172413793103,5.5744163921756975 -9.655172413793103,-5.5744163921756975" stroke="white" stroke-width="2" fill="green"><title>Wokingham</title></polygon></g><g transform="translate(193.1034482758621,328.8905671383661)"><polygon points="0,-11.148832784351395 9.655172413793103,-5.5744163921756975 9.655172413793103,5.5744163921756975 0,11.148832784351395 -9.655172413793103,5.5744163921756975 -9.655172413793103,-5.5744163921756975" stroke="white" stroke-width="2" fill="green"><title>Milton Keynes</title></polygon></g><g transform="translate(231.72413793103448,395.7835638444745)"><polygon points="0,-11.148832784351395 9.655172413793103,-5.5744163921756975 9.655172413793103,5.5744163921756975 0,11.148832784351395 -9.655172413793103,5.5744163921756975 -9.655172413793103,-5.5744163921756975" stroke="white" stroke-width="2" fill="green"><title>Brighton and Hove</title></polygon></g><g transform="translate(193.1034482758621,395.7835638444745)"><polygon points="0,-11.148832784351395 9.655172413793103,-5.5744163921756975 9.655172413793103,5.5744163921756975 0,11.148832784351395 -9.655172413793103,5.5744163921756975 -9.655172413793103,-5.5744163921756975" stroke="white" stroke-width="2" fill="green"><title>Portsmouth</title></polygon></g><g transform="translate(164.13793103448276,379.0603146679474)"><polygon points="0,-11.148832784351395 9.655172413793103,-5.5744163921756975 9.655172413793103,5.5744163921756975 0,11.148832784351395 -9.655172413793103,5.5744163921756975 -9.655172413793103,-5.5744163921756975" stroke="white" stroke-width="2" fill="green"><title>Southampton</title></polygon></g><g transform="translate(173.79310344827587,429.2300621975287)"><polygon points="0,-11.148832784351395 9.655172413793103,-5.5744163921756975 9.655172413793103,5.5744163921756975 0,11.148832784351395 -9.655172413793103,5.5744163921756975 -9.655172413793103,-5.5744163921756975" stroke="white" stroke-width="2" fill="green"><title>Isle of Wight</title></polygon></g><g transform="translate(135.17241379310343,195.1045737261494)"><polygon points="0,-11.148832784351395 9.655172413793103,-5.5744163921756975 9.655172413793103,5.5744163921756975 0,11.148832784351395 -9.655172413793103,5.5744163921756975 -9.655172413793103,-5.5744163921756975" stroke="white" stroke-width="2" fill="green"><title>County Durham</title></polygon></g><g transform="translate(135.17241379310343,261.9975704322578)"><polygon points="0,-11.148832784351395 9.655172413793103,-5.5744163921756975 9.655172413793103,5.5744163921756975 0,11.148832784351395 -9.655172413793103,5.5744163921756975 -9.655172413793103,-5.5744163921756975" stroke="white" stroke-width="2" fill="orange"><title>Cheshire East</title></polygon></g><g transform="translate(115.86206896551724,261.9975704322578)"><polygon points="0,-11.148832784351395 9.655172413793103,-5.5744163921756975 9.655172413793103,5.5744163921756975 0,11.148832784351395 -9.655172413793103,5.5744163921756975 -9.655172413793103,-5.5744163921756975" stroke="white" stroke-width="2" fill="orange"><title>Cheshire West and Chester</title></polygon></g><g transform="translate(125.51724137931035,312.16731796183905)"><polygon points="0,-11.148832784351395 9.655172413793103,-5.5744163921756975 9.655172413793103,5.5744163921756975 0,11.148832784351395 -9.655172413793103,5.5744163921756975 -9.655172413793103,-5.5744163921756975" stroke="white" stroke-width="2" fill="orange"><title>Shropshire</title></polygon></g><g transform="translate(86.89655172413794,412.50681302100156)"><polygon points="0,-11.148832784351395 9.655172413793103,-5.5744163921756975 9.655172413793103,5.5744163921756975 0,11.148832784351395 -9.655172413793103,5.5744163921756975 -9.655172413793103,-5.5744163921756975" stroke="white" stroke-width="2" fill="green"><title>Cornwall</title></polygon></g><g transform="translate(154.48275862068965,362.33706549142033)"><polygon points="0,-11.148832784351395 9.655172413793103,-5.5744163921756975 9.655172413793103,5.5744163921756975 0,11.148832784351395 -9.655172413793103,5.5744163921756975 -9.655172413793103,-5.5744163921756975" stroke="white" stroke-width="2" fill="orange"><title>Wiltshire</title></polygon></g><g transform="translate(222.06896551724137,312.16731796183905)"><polygon points="0,-11.148832784351395 9.655172413793103,-5.5744163921756975 9.655172413793103,5.5744163921756975 0,11.148832784351395 -9.655172413793103,5.5744163921756975 -9.655172413793103,-5.5744163921756975" stroke="white" stroke-width="2" fill="green"><title>Bedford</title></polygon></g><g transform="translate(212.41379310344826,328.8905671383661)"><polygon points="0,-11.148832784351395 9.655172413793103,-5.5744163921756975 9.655172413793103,5.5744163921756975 0,11.148832784351395 -9.655172413793103,5.5744163921756975 -9.655172413793103,-5.5744163921756975" stroke="white" stroke-width="2" fill="orange"><title>Central Bedfordshire</title></polygon></g><g transform="translate(144.82758620689654,178.38132454962232)"><polygon points="0,-11.148832784351395 9.655172413793103,-5.5744163921756975 9.655172413793103,5.5744163921756975 0,11.148832784351395 -9.655172413793103,5.5744163921756975 -9.655172413793103,-5.5744163921756975" stroke="white" stroke-width="2" fill="green"><title>Northumberland</title></polygon></g><g transform="translate(202.75862068965517,345.61381631489326)"><polygon points="0,-11.148832784351395 9.655172413793103,-5.5744163921756975 9.655172413793103,5.5744163921756975 0,11.148832784351395 -9.655172413793103,5.5744163921756975 -9.655172413793103,-5.5744163921756975" stroke="white" stroke-width="2" fill="orange"><title>Buckinghamshire</title></polygon></g><g transform="translate(241.3793103448276,312.16731796183905)"><polygon points="0,-11.148832784351395 9.655172413793103,-5.5744163921756975 9.655172413793103,5.5744163921756975 0,11.148832784351395 -9.655172413793103,5.5744163921756975 -9.655172413793103,-5.5744163921756975" stroke="white" stroke-width="2" fill="orange"><title>Cambridgeshire</title></polygon></g><g transform="translate(115.86206896551724,195.1045737261494)"><polygon points="0,-11.148832784351395 9.655172413793103,-5.5744163921756975 9.655172413793103,5.5744163921756975 0,11.148832784351395 -9.655172413793103,5.5744163921756975 -9.655172413793103,-5.5744163921756975" stroke="white" stroke-width="2" fill="green"><title>Cumbria</title></polygon></g><g transform="translate(173.79310344827587,261.9975704322578)"><polygon points="0,-11.148832784351395 9.655172413793103,-5.5744163921756975 9.655172413793103,5.5744163921756975 0,11.148832784351395 -9.655172413793103,5.5744163921756975 -9.655172413793103,-5.5744163921756975" stroke="white" stroke-width="2" fill="orange"><title>Derbyshire</title></polygon></g><g transform="translate(96.55172413793103,395.7835638444745)"><polygon points="0,-11.148832784351395 9.655172413793103,-5.5744163921756975 9.655172413793103,5.5744163921756975 0,11.148832784351395 -9.655172413793103,5.5744163921756975 -9.655172413793103,-5.5744163921756975" stroke="white" stroke-width="2" fill="green"><title>Devon</title></polygon></g><g transform="translate(144.82758620689654,379.0603146679474)"><polygon points="0,-11.148832784351395 9.655172413793103,-5.5744163921756975 9.655172413793103,5.5744163921756975 0,11.148832784351395 -9.655172413793103,5.5744163921756975 -9.655172413793103,-5.5744163921756975" stroke="white" stroke-width="2" fill="green"><title>Dorset</title></polygon></g><g transform="translate(251.0344827586207,395.7835638444745)"><polygon points="0,-11.148832784351395 9.655172413793103,-5.5744163921756975 9.655172413793103,5.5744163921756975 0,11.148832784351395 -9.655172413793103,5.5744163921756975 -9.655172413793103,-5.5744163921756975" stroke="white" stroke-width="2" fill="green"><title>East Sussex</title></polygon></g><g transform="translate(251.0344827586207,328.8905671383661)"><polygon points="0,-11.148832784351395 9.655172413793103,-5.5744163921756975 9.655172413793103,5.5744163921756975 0,11.148832784351395 -9.655172413793103,5.5744163921756975 -9.655172413793103,-5.5744163921756975" stroke="white" stroke-width="2" fill="green"><title>Essex</title></polygon></g><g transform="translate(154.48275862068965,328.8905671383661)"><polygon points="0,-11.148832784351395 9.655172413793103,-5.5744163921756975 9.655172413793103,5.5744163921756975 0,11.148832784351395 -9.655172413793103,5.5744163921756975 -9.655172413793103,-5.5744163921756975" stroke="white" stroke-width="2" fill="orange"><title>Gloucestershire</title></polygon></g><g transform="translate(183.44827586206898,379.0603146679474)"><polygon points="0,-11.148832784351395 9.655172413793103,-5.5744163921756975 9.655172413793103,5.5744163921756975 0,11.148832784351395 -9.655172413793103,5.5744163921756975 -9.655172413793103,-5.5744163921756975" stroke="white" stroke-width="2" fill="orange"><title>Hampshire</title></polygon></g><g transform="translate(241.3793103448276,345.61381631489326)"><polygon points="0,-11.148832784351395 9.655172413793103,-5.5744163921756975 9.655172413793103,5.5744163921756975 0,11.148832784351395 -9.655172413793103,5.5744163921756975 -9.655172413793103,-5.5744163921756975" stroke="white" stroke-width="2" fill="orange"><title>Hertfordshire</title></polygon></g><g transform="translate(260.6896551724138,379.0603146679474)"><polygon points="0,-11.148832784351395 9.655172413793103,-5.5744163921756975 9.655172413793103,5.5744163921756975 0,11.148832784351395 -9.655172413793103,5.5744163921756975 -9.655172413793103,-5.5744163921756975" stroke="white" stroke-width="2" fill="green"><title>Kent</title></polygon></g><g transform="translate(125.51724137931035,211.82782290267647)"><polygon points="0,-11.148832784351395 9.655172413793103,-5.5744163921756975 9.655172413793103,5.5744163921756975 0,11.148832784351395 -9.655172413793103,5.5744163921756975 -9.655172413793103,-5.5744163921756975" stroke="white" stroke-width="2" fill="orange"><title>Lancashire</title></polygon></g><g transform="translate(173.79310344827587,295.44406878531197)"><polygon points="0,-11.148832784351395 9.655172413793103,-5.5744163921756975 9.655172413793103,5.5744163921756975 0,11.148832784351395 -9.655172413793103,5.5744163921756975 -9.655172413793103,-5.5744163921756975" stroke="white" stroke-width="2" fill="orange"><title>Leicestershire</title></polygon></g><g transform="translate(202.75862068965517,278.72081960878484)"><polygon points="0,-11.148832784351395 9.655172413793103,-5.5744163921756975 9.655172413793103,5.5744163921756975 0,11.148832784351395 -9.655172413793103,5.5744163921756975 -9.655172413793103,-5.5744163921756975" stroke="white" stroke-width="2" fill="orange"><title>Lincolnshire</title></polygon></g><g transform="translate(251.0344827586207,295.44406878531197)"><polygon points="0,-11.148832784351395 9.655172413793103,-5.5744163921756975 9.655172413793103,5.5744163921756975 0,11.148832784351395 -9.655172413793103,5.5744163921756975 -9.655172413793103,-5.5744163921756975" stroke="white" stroke-width="2" fill="green"><title>Norfolk</title></polygon></g><g transform="translate(202.75862068965517,312.16731796183905)"><polygon points="0,-11.148832784351395 9.655172413793103,-5.5744163921756975 9.655172413793103,5.5744163921756975 0,11.148832784351395 -9.655172413793103,5.5744163921756975 -9.655172413793103,-5.5744163921756975" stroke="white" stroke-width="2" fill="orange"><title>Northamptonshire</title></polygon></g><g transform="translate(154.48275862068965,228.5510720792036)"><polygon points="0,-11.148832784351395 9.655172413793103,-5.5744163921756975 9.655172413793103,5.5744163921756975 0,11.148832784351395 -9.655172413793103,5.5744163921756975 -9.655172413793103,-5.5744163921756975" stroke="white" stroke-width="2" fill="orange"><title>North Yorkshire</title></polygon></g><g transform="translate(183.44827586206898,278.72081960878484)"><polygon points="0,-11.148832784351395 9.655172413793103,-5.5744163921756975 9.655172413793103,5.5744163921756975 0,11.148832784351395 -9.655172413793103,5.5744163921756975 -9.655172413793103,-5.5744163921756975" stroke="white" stroke-width="2" fill="orange"><title>Nottinghamshire</title></polygon></g><g transform="translate(173.79310344827587,328.8905671383661)"><polygon points="0,-11.148832784351395 9.655172413793103,-5.5744163921756975 9.655172413793103,5.5744163921756975 0,11.148832784351395 -9.655172413793103,5.5744163921756975 -9.655172413793103,-5.5744163921756975" stroke="white" stroke-width="2" fill="orange"><title>Oxfordshire</title></polygon></g><g transform="translate(115.86206896551724,395.7835638444745)"><polygon points="0,-11.148832784351395 9.655172413793103,-5.5744163921756975 9.655172413793103,5.5744163921756975 0,11.148832784351395 -9.655172413793103,5.5744163921756975 -9.655172413793103,-5.5744163921756975" stroke="white" stroke-width="2" fill="green"><title>Somerset</title></polygon></g><g transform="translate(125.51724137931035,278.72081960878484)"><polygon points="0,-11.148832784351395 9.655172413793103,-5.5744163921756975 9.655172413793103,5.5744163921756975 0,11.148832784351395 -9.655172413793103,5.5744163921756975 -9.655172413793103,-5.5744163921756975" stroke="white" stroke-width="2" fill="orange"><title>Staffordshire</title></polygon></g><g transform="translate(260.6896551724138,312.16731796183905)"><polygon points="0,-11.148832784351395 9.655172413793103,-5.5744163921756975 9.655172413793103,5.5744163921756975 0,11.148832784351395 -9.655172413793103,5.5744163921756975 -9.655172413793103,-5.5744163921756975" stroke="white" stroke-width="2" fill="green"><title>Suffolk</title></polygon></g><g transform="translate(222.06896551724137,379.0603146679474)"><polygon points="0,-11.148832784351395 9.655172413793103,-5.5744163921756975 9.655172413793103,5.5744163921756975 0,11.148832784351395 -9.655172413793103,5.5744163921756975 -9.655172413793103,-5.5744163921756975" stroke="white" stroke-width="2" fill="green"><title>Surrey</title></polygon></g><g transform="translate(154.48275862068965,295.44406878531197)"><polygon points="0,-11.148832784351395 9.655172413793103,-5.5744163921756975 9.655172413793103,5.5744163921756975 0,11.148832784351395 -9.655172413793103,5.5744163921756975 -9.655172413793103,-5.5744163921756975" stroke="white" stroke-width="2" fill="orange"><title>Warwickshire</title></polygon></g><g transform="translate(212.41379310344826,395.7835638444745)"><polygon points="0,-11.148832784351395 9.655172413793103,-5.5744163921756975 9.655172413793103,5.5744163921756975 0,11.148832784351395 -9.655172413793103,5.5744163921756975 -9.655172413793103,-5.5744163921756975" stroke="white" stroke-width="2" fill="green"><title>West Sussex</title></polygon></g><g transform="translate(164.13793103448276,312.16731796183905)"><polygon points="0,-11.148832784351395 9.655172413793103,-5.5744163921756975 9.655172413793103,5.5744163921756975 0,11.148832784351395 -9.655172413793103,5.5744163921756975 -9.655172413793103,-5.5744163921756975" stroke="white" stroke-width="2" fill="orange"><title>Worcestershire</title></polygon></g><g transform="translate(144.82758620689654,245.27432125573068)"><polygon points="0,-11.148832784351395 9.655172413793103,-5.5744163921756975 9.655172413793103,5.5744163921756975 0,11.148832784351395 -9.655172413793103,5.5744163921756975 -9.655172413793103,-5.5744163921756975" stroke="white" stroke-width="2" fill="green"><title>Greater Manchester</title></polygon></g><g transform="translate(106.20689655172413,245.27432125573068)"><polygon points="0,-11.148832784351395 9.655172413793103,-5.5744163921756975 9.655172413793103,5.5744163921756975 0,11.148832784351395 -9.655172413793103,5.5744163921756975 -9.655172413793103,-5.5744163921756975" stroke="white" stroke-width="2" fill="green"><title>Merseyside</title></polygon></g><g transform="translate(183.44827586206898,245.27432125573068)"><polygon points="0,-11.148832784351395 9.655172413793103,-5.5744163921756975 9.655172413793103,5.5744163921756975 0,11.148832784351395 -9.655172413793103,5.5744163921756975 -9.655172413793103,-5.5744163921756975" stroke="white" stroke-width="2" fill="orange"><title>South Yorkshire</title></polygon></g><g transform="translate(135.17241379310343,295.44406878531197)"><polygon points="0,-11.148832784351395 9.655172413793103,-5.5744163921756975 9.655172413793103,5.5744163921756975 0,11.148832784351395 -9.655172413793103,5.5744163921756975 -9.655172413793103,-5.5744163921756975" stroke="white" stroke-width="2" fill="green"><title>West Midlands</title></polygon></g><g transform="translate(164.13793103448276,245.27432125573068)"><polygon points="0,-11.148832784351395 9.655172413793103,-5.5744163921756975 9.655172413793103,5.5744163921756975 0,11.148832784351395 -9.655172413793103,5.5744163921756975 -9.655172413793103,-5.5744163921756975" stroke="white" stroke-width="2" fill="orange"><title>West Yorkshire</title></polygon></g><g transform="translate(164.13793103448276,178.38132454962232)"><polygon points="0,-11.148832784351395 9.655172413793103,-5.5744163921756975 9.655172413793103,5.5744163921756975 0,11.148832784351395 -9.655172413793103,5.5744163921756975 -9.655172413793103,-5.5744163921756975" stroke="white" stroke-width="2" fill="green"><title>Tyne and Wear</title></polygon></g><g transform="translate(231.72413793103448,362.33706549142033)"><polygon points="0,-11.148832784351395 9.655172413793103,-5.5744163921756975 9.655172413793103,5.5744163921756975 0,11.148832784351395 -9.655172413793103,5.5744163921756975 -9.655172413793103,-5.5744163921756975" stroke="white" stroke-width="2" fill="green"><title>Outer London</title></polygon></g><g transform="translate(251.0344827586207,362.33706549142033)"><polygon points="0,-11.148832784351395 9.655172413793103,-5.5744163921756975 9.655172413793103,5.5744163921756975 0,11.148832784351395 -9.655172413793103,5.5744163921756975 -9.655172413793103,-5.5744163921756975" stroke="white" stroke-width="2" fill="green"><title>Inner London</title></polygon></g><g transform="translate(86.89655172413794,111.48832784351394)"><polygon points="0,-11.148832784351395 9.655172413793103,-5.5744163921756975 9.655172413793103,5.5744163921756975 0,11.148832784351395 -9.655172413793103,5.5744163921756975 -9.655172413793103,-5.5744163921756975" stroke="white" stroke-width="2" fill="orange"><title>Clackmannanshire</title></polygon></g><g transform="translate(125.51724137931035,178.38132454962232)"><polygon points="0,-11.148832784351395 9.655172413793103,-5.5744163921756975 9.655172413793103,5.5744163921756975 0,11.148832784351395 -9.655172413793103,5.5744163921756975 -9.655172413793103,-5.5744163921756975" stroke="white" stroke-width="2" fill="green"><title>Dumfries and Galloway</title></polygon></g><g transform="translate(106.20689655172413,178.38132454962232)"><polygon points="0,-11.148832784351395 9.655172413793103,-5.5744163921756975 9.655172413793103,5.5744163921756975 0,11.148832784351395 -9.655172413793103,5.5744163921756975 -9.655172413793103,-5.5744163921756975" stroke="white" stroke-width="2" fill="orange"><title>East Ayrshire</title></polygon></g><g transform="translate(144.82758620689654,144.9348261965681)"><polygon points="0,-11.148832784351395 9.655172413793103,-5.5744163921756975 9.655172413793103,5.5744163921756975 0,11.148832784351395 -9.655172413793103,5.5744163921756975 -9.655172413793103,-5.5744163921756975" stroke="white" stroke-width="2" fill="green"><title>East Lothian</title></polygon></g><g transform="translate(86.89655172413794,178.38132454962232)"><polygon points="0,-11.148832784351395 9.655172413793103,-5.5744163921756975 9.655172413793103,5.5744163921756975 0,11.148832784351395 -9.655172413793103,5.5744163921756975 -9.655172413793103,-5.5744163921756975" stroke="white" stroke-width="2" fill="orange"><title>East Renfrewshire</title></polygon></g><g transform="translate(38.62068965517241,61.31858031393267)"><polygon points="0,-11.148832784351395 9.655172413793103,-5.5744163921756975 9.655172413793103,5.5744163921756975 0,11.148832784351395 -9.655172413793103,5.5744163921756975 -9.655172413793103,-5.5744163921756975" stroke="white" stroke-width="2" fill="green"><title>Na h-Eileanan Siar</title></polygon></g><g transform="translate(96.55172413793103,128.21157702004103)"><polygon points="0,-11.148832784351395 9.655172413793103,-5.5744163921756975 9.655172413793103,5.5744163921756975 0,11.148832784351395 -9.655172413793103,5.5744163921756975 -9.655172413793103,-5.5744163921756975" stroke="white" stroke-width="2" fill="green"><title>Falkirk</title></polygon></g><g transform="translate(106.20689655172413,111.48832784351394)"><polygon points="0,-11.148832784351395 9.655172413793103,-5.5744163921756975 9.655172413793103,5.5744163921756975 0,11.148832784351395 -9.655172413793103,5.5744163921756975 -9.655172413793103,-5.5744163921756975" stroke="white" stroke-width="2" fill="green"><title>Fife</title></polygon></g><g transform="translate(67.58620689655172,78.04182949045976)"><polygon points="0,-11.148832784351395 9.655172413793103,-5.5744163921756975 9.655172413793103,5.5744163921756975 0,11.148832784351395 -9.655172413793103,5.5744163921756975 -9.655172413793103,-5.5744163921756975" stroke="white" stroke-width="2" fill="green"><title>Highland</title></polygon></g><g transform="translate(57.93103448275862,161.65807537309522)"><polygon points="0,-11.148832784351395 9.655172413793103,-5.5744163921756975 9.655172413793103,5.5744163921756975 0,11.148832784351395 -9.655172413793103,5.5744163921756975 -9.655172413793103,-5.5744163921756975" stroke="white" stroke-width="2" fill="green"><title>Inverclyde</title></polygon></g><g transform="translate(115.86206896551724,161.65807537309522)"><polygon points="0,-11.148832784351395 9.655172413793103,-5.5744163921756975 9.655172413793103,5.5744163921756975 0,11.148832784351395 -9.655172413793103,5.5744163921756975 -9.655172413793103,-5.5744163921756975" stroke="white" stroke-width="2" fill="green"><title>Midlothian</title></polygon></g><g transform="translate(86.89655172413794,78.04182949045976)"><polygon points="0,-11.148832784351395 9.655172413793103,-5.5744163921756975 9.655172413793103,5.5744163921756975 0,11.148832784351395 -9.655172413793103,5.5744163921756975 -9.655172413793103,-5.5744163921756975" stroke="white" stroke-width="2" fill="green"><title>Moray</title></polygon></g><g transform="translate(67.58620689655172,178.38132454962232)"><polygon points="0,-11.148832784351395 9.655172413793103,-5.5744163921756975 9.655172413793103,5.5744163921756975 0,11.148832784351395 -9.655172413793103,5.5744163921756975 -9.655172413793103,-5.5744163921756975" stroke="white" stroke-width="2" fill="orange"><title>North Ayrshire</title></polygon></g><g transform="translate(125.51724137931035,44.59533113740558)"><polygon points="0,-11.148832784351395 9.655172413793103,-5.5744163921756975 9.655172413793103,5.5744163921756975 0,11.148832784351395 -9.655172413793103,5.5744163921756975 -9.655172413793103,-5.5744163921756975" stroke="white" stroke-width="2" fill="green"><title>Orkney Islands</title></polygon></g><g transform="translate(77.24137931034483,94.76507866698687)"><polygon points="0,-11.148832784351395 9.655172413793103,-5.5744163921756975 9.655172413793103,5.5744163921756975 0,11.148832784351395 -9.655172413793103,5.5744163921756975 -9.655172413793103,-5.5744163921756975" stroke="white" stroke-width="2" fill="green"><title>Perth and Kinross</title></polygon></g><g transform="translate(135.17241379310343,161.65807537309522)"><polygon points="0,-11.148832784351395 9.655172413793103,-5.5744163921756975 9.655172413793103,5.5744163921756975 0,11.148832784351395 -9.655172413793103,5.5744163921756975 -9.655172413793103,-5.5744163921756975" stroke="white" stroke-width="2" fill="green"><title>Scottish Borders</title></polygon></g><g transform="translate(144.82758620689654,11.148832784351395)"><polygon points="0,-11.148832784351395 9.655172413793103,-5.5744163921756975 9.655172413793103,5.5744163921756975 0,11.148832784351395 -9.655172413793103,5.5744163921756975 -9.655172413793103,-5.5744163921756975" stroke="white" stroke-width="2" fill="green"><title>Shetland Islands</title></polygon></g><g transform="translate(77.24137931034483,195.1045737261494)"><polygon points="0,-11.148832784351395 9.655172413793103,-5.5744163921756975 9.655172413793103,5.5744163921756975 0,11.148832784351395 -9.655172413793103,5.5744163921756975 -9.655172413793103,-5.5744163921756975" stroke="white" stroke-width="2" fill="orange"><title>South Ayrshire</title></polygon></g><g transform="translate(96.55172413793103,161.65807537309522)"><polygon points="0,-11.148832784351395 9.655172413793103,-5.5744163921756975 9.655172413793103,5.5744163921756975 0,11.148832784351395 -9.655172413793103,5.5744163921756975 -9.655172413793103,-5.5744163921756975" stroke="white" stroke-width="2" fill="orange"><title>South Lanarkshire</title></polygon></g><g transform="translate(67.58620689655172,111.48832784351394)"><polygon points="0,-11.148832784351395 9.655172413793103,-5.5744163921756975 9.655172413793103,5.5744163921756975 0,11.148832784351395 -9.655172413793103,5.5744163921756975 -9.655172413793103,-5.5744163921756975" stroke="white" stroke-width="2" fill="green"><title>Stirling</title></polygon></g><g transform="translate(125.51724137931035,78.04182949045976)"><polygon points="0,-11.148832784351395 9.655172413793103,-5.5744163921756975 9.655172413793103,5.5744163921756975 0,11.148832784351395 -9.655172413793103,5.5744163921756975 -9.655172413793103,-5.5744163921756975" stroke="white" stroke-width="2" fill="green"><title>Aberdeen City</title></polygon></g><g transform="translate(106.20689655172413,78.04182949045976)"><polygon points="0,-11.148832784351395 9.655172413793103,-5.5744163921756975 9.655172413793103,5.5744163921756975 0,11.148832784351395 -9.655172413793103,5.5744163921756975 -9.655172413793103,-5.5744163921756975" stroke="white" stroke-width="2" fill="orange"><title>Aberdeenshire</title></polygon></g><g transform="translate(48.275862068965516,111.48832784351394)"><polygon points="0,-11.148832784351395 9.655172413793103,-5.5744163921756975 9.655172413793103,5.5744163921756975 0,11.148832784351395 -9.655172413793103,5.5744163921756975 -9.655172413793103,-5.5744163921756975" stroke="white" stroke-width="2" fill="green"><title>Argyll and Bute</title></polygon></g><g transform="translate(125.51724137931035,144.9348261965681)"><polygon points="0,-11.148832784351395 9.655172413793103,-5.5744163921756975 9.655172413793103,5.5744163921756975 0,11.148832784351395 -9.655172413793103,5.5744163921756975 -9.655172413793103,-5.5744163921756975" stroke="white" stroke-width="2" fill="green"><title>City of Edinburgh</title></polygon></g><g transform="translate(67.58620689655172,144.9348261965681)"><polygon points="0,-11.148832784351395 9.655172413793103,-5.5744163921756975 9.655172413793103,5.5744163921756975 0,11.148832784351395 -9.655172413793103,5.5744163921756975 -9.655172413793103,-5.5744163921756975" stroke="white" stroke-width="2" fill="orange"><title>Renfrewshire</title></polygon></g><g transform="translate(57.93103448275862,128.21157702004103)"><polygon points="0,-11.148832784351395 9.655172413793103,-5.5744163921756975 9.655172413793103,5.5744163921756975 0,11.148832784351395 -9.655172413793103,5.5744163921756975 -9.655172413793103,-5.5744163921756975" stroke="white" stroke-width="2" fill="orange"><title>West Dunbartonshire</title></polygon></g><g transform="translate(106.20689655172413,144.9348261965681)"><polygon points="0,-11.148832784351395 9.655172413793103,-5.5744163921756975 9.655172413793103,5.5744163921756975 0,11.148832784351395 -9.655172413793103,5.5744163921756975 -9.655172413793103,-5.5744163921756975" stroke="white" stroke-width="2" fill="green"><title>West Lothian</title></polygon></g><g transform="translate(96.55172413793103,94.76507866698687)"><polygon points="0,-11.148832784351395 9.655172413793103,-5.5744163921756975 9.655172413793103,5.5744163921756975 0,11.148832784351395 -9.655172413793103,5.5744163921756975 -9.655172413793103,-5.5744163921756975" stroke="white" stroke-width="2" fill="green"><title>Angus</title></polygon></g><g transform="translate(115.86206896551724,94.76507866698687)"><polygon points="0,-11.148832784351395 9.655172413793103,-5.5744163921756975 9.655172413793103,5.5744163921756975 0,11.148832784351395 -9.655172413793103,5.5744163921756975 -9.655172413793103,-5.5744163921756975" stroke="white" stroke-width="2" fill="green"><title>Dundee City</title></polygon></g><g transform="translate(86.89655172413794,144.9348261965681)"><polygon points="0,-11.148832784351395 9.655172413793103,-5.5744163921756975 9.655172413793103,5.5744163921756975 0,11.148832784351395 -9.655172413793103,5.5744163921756975 -9.655172413793103,-5.5744163921756975" stroke="white" stroke-width="2" fill="orange"><title>North Lanarkshire</title></polygon></g><g transform="translate(77.24137931034483,128.21157702004103)"><polygon points="0,-11.148832784351395 9.655172413793103,-5.5744163921756975 9.655172413793103,5.5744163921756975 0,11.148832784351395 -9.655172413793103,5.5744163921756975 -9.655172413793103,-5.5744163921756975" stroke="white" stroke-width="2" fill="orange"><title>East Dunbartonshire</title></polygon></g><g transform="translate(77.24137931034483,161.65807537309522)"><polygon points="0,-11.148832784351395 9.655172413793103,-5.5744163921756975 9.655172413793103,5.5744163921756975 0,11.148832784351395 -9.655172413793103,5.5744163921756975 -9.655172413793103,-5.5744163921756975" stroke="white" stroke-width="2" fill="green"><title>Glasgow City</title></polygon></g><g transform="translate(19.310344827586206,261.9975704322578)"><polygon points="0,-11.148832784351395 9.655172413793103,-5.5744163921756975 9.655172413793103,5.5744163921756975 0,11.148832784351395 -9.655172413793103,5.5744163921756975 -9.655172413793103,-5.5744163921756975" stroke="white" stroke-width="2" fill="green"><title>Isle of Anglesey</title></polygon></g><g transform="translate(48.275862068965516,278.72081960878484)"><polygon points="0,-11.148832784351395 9.655172413793103,-5.5744163921756975 9.655172413793103,5.5744163921756975 0,11.148832784351395 -9.655172413793103,5.5744163921756975 -9.655172413793103,-5.5744163921756975" stroke="white" stroke-width="2" fill="green"><title>Gwynedd</title></polygon></g><g transform="translate(67.58620689655172,278.72081960878484)"><polygon points="0,-11.148832784351395 9.655172413793103,-5.5744163921756975 9.655172413793103,5.5744163921756975 0,11.148832784351395 -9.655172413793103,5.5744163921756975 -9.655172413793103,-5.5744163921756975" stroke="white" stroke-width="2" fill="green"><title>Conwy</title></polygon></g><g transform="translate(77.24137931034483,295.44406878531197)"><polygon points="0,-11.148832784351395 9.655172413793103,-5.5744163921756975 9.655172413793103,5.5744163921756975 0,11.148832784351395 -9.655172413793103,5.5744163921756975 -9.655172413793103,-5.5744163921756975" stroke="white" stroke-width="2" fill="orange"><title>Denbighshire</title></polygon></g><g transform="translate(86.89655172413794,278.72081960878484)"><polygon points="0,-11.148832784351395 9.655172413793103,-5.5744163921756975 9.655172413793103,5.5744163921756975 0,11.148832784351395 -9.655172413793103,5.5744163921756975 -9.655172413793103,-5.5744163921756975" stroke="white" stroke-width="2" fill="orange"><title>Flintshire</title></polygon></g><g transform="translate(96.55172413793103,295.44406878531197)"><polygon points="0,-11.148832784351395 9.655172413793103,-5.5744163921756975 9.655172413793103,5.5744163921756975 0,11.148832784351395 -9.655172413793103,5.5744163921756975 -9.655172413793103,-5.5744163921756975" stroke="white" stroke-width="2" fill="green"><title>Wrexham</title></polygon></g><g transform="translate(86.89655172413794,312.16731796183905)"><polygon points="0,-11.148832784351395 9.655172413793103,-5.5744163921756975 9.655172413793103,5.5744163921756975 0,11.148832784351395 -9.655172413793103,5.5744163921756975 -9.655172413793103,-5.5744163921756975" stroke="white" stroke-width="2" fill="green"><title>Ceredigion</title></polygon></g><g transform="translate(9.655172413793103,345.61381631489326)"><polygon points="0,-11.148832784351395 9.655172413793103,-5.5744163921756975 9.655172413793103,5.5744163921756975 0,11.148832784351395 -9.655172413793103,5.5744163921756975 -9.655172413793103,-5.5744163921756975" stroke="white" stroke-width="2" fill="orange"><title>Pembrokeshire</title></polygon></g><g transform="translate(28.96551724137931,345.61381631489326)"><polygon points="0,-11.148832784351395 9.655172413793103,-5.5744163921756975 9.655172413793103,5.5744163921756975 0,11.148832784351395 -9.655172413793103,5.5744163921756975 -9.655172413793103,-5.5744163921756975" stroke="white" stroke-width="2" fill="orange"><title>Carmarthenshire</title></polygon></g><g transform="translate(38.62068965517241,362.33706549142033)"><polygon points="0,-11.148832784351395 9.655172413793103,-5.5744163921756975 9.655172413793103,5.5744163921756975 0,11.148832784351395 -9.655172413793103,5.5744163921756975 -9.655172413793103,-5.5744163921756975" stroke="white" stroke-width="2" fill="green"><title>Swansea</title></polygon></g><g transform="translate(48.275862068965516,345.61381631489326)"><polygon points="0,-11.148832784351395 9.655172413793103,-5.5744163921756975 9.655172413793103,5.5744163921756975 0,11.148832784351395 -9.655172413793103,5.5744163921756975 -9.655172413793103,-5.5744163921756975" stroke="white" stroke-width="2" fill="green"><title>Neath Port Talbot</title></polygon></g><g transform="translate(57.93103448275862,362.33706549142033)"><polygon points="0,-11.148832784351395 9.655172413793103,-5.5744163921756975 9.655172413793103,5.5744163921756975 0,11.148832784351395 -9.655172413793103,5.5744163921756975 -9.655172413793103,-5.5744163921756975" stroke="white" stroke-width="2" fill="green"><title>Bridgend</title></polygon></g><g transform="translate(77.24137931034483,362.33706549142033)"><polygon points="0,-11.148832784351395 9.655172413793103,-5.5744163921756975 9.655172413793103,5.5744163921756975 0,11.148832784351395 -9.655172413793103,5.5744163921756975 -9.655172413793103,-5.5744163921756975" stroke="white" stroke-width="2" fill="green"><title>Vale of Glamorgan</title></polygon></g><g transform="translate(96.55172413793103,362.33706549142033)"><polygon points="0,-11.148832784351395 9.655172413793103,-5.5744163921756975 9.655172413793103,5.5744163921756975 0,11.148832784351395 -9.655172413793103,5.5744163921756975 -9.655172413793103,-5.5744163921756975" stroke="white" stroke-width="2" fill="green"><title>Cardiff</title></polygon></g><g transform="translate(67.58620689655172,345.61381631489326)"><polygon points="0,-11.148832784351395 9.655172413793103,-5.5744163921756975 9.655172413793103,5.5744163921756975 0,11.148832784351395 -9.655172413793103,5.5744163921756975 -9.655172413793103,-5.5744163921756975" stroke="white" stroke-width="2" fill="green"><title>Rhondda Cynon Taf</title></polygon></g><g transform="translate(86.89655172413794,345.61381631489326)"><polygon points="0,-11.148832784351395 9.655172413793103,-5.5744163921756975 9.655172413793103,5.5744163921756975 0,11.148832784351395 -9.655172413793103,5.5744163921756975 -9.655172413793103,-5.5744163921756975" stroke="white" stroke-width="2" fill="green"><title>Caerphilly</title></polygon></g><g transform="translate(96.55172413793103,328.8905671383661)"><polygon points="0,-11.148832784351395 9.655172413793103,-5.5744163921756975 9.655172413793103,5.5744163921756975 0,11.148832784351395 -9.655172413793103,5.5744163921756975 -9.655172413793103,-5.5744163921756975" stroke="white" stroke-width="2" fill="green"><title>Blaenau Gwent</title></polygon></g><g transform="translate(115.86206896551724,328.8905671383661)"><polygon points="0,-11.148832784351395 9.655172413793103,-5.5744163921756975 9.655172413793103,5.5744163921756975 0,11.148832784351395 -9.655172413793103,5.5744163921756975 -9.655172413793103,-5.5744163921756975" stroke="white" stroke-width="2" fill="green"><title>Torfaen</title></polygon></g><g transform="translate(125.51724137931035,345.61381631489326)"><polygon points="0,-11.148832784351395 9.655172413793103,-5.5744163921756975 9.655172413793103,5.5744163921756975 0,11.148832784351395 -9.655172413793103,5.5744163921756975 -9.655172413793103,-5.5744163921756975" stroke="white" stroke-width="2" fill="orange"><title>Monmouthshire</title></polygon></g><g transform="translate(106.20689655172413,345.61381631489326)"><polygon points="0,-11.148832784351395 9.655172413793103,-5.5744163921756975 9.655172413793103,5.5744163921756975 0,11.148832784351395 -9.655172413793103,5.5744163921756975 -9.655172413793103,-5.5744163921756975" stroke="white" stroke-width="2" fill="green"><title>Newport</title></polygon></g><g transform="translate(77.24137931034483,328.8905671383661)"><polygon points="0,-11.148832784351395 9.655172413793103,-5.5744163921756975 9.655172413793103,5.5744163921756975 0,11.148832784351395 -9.655172413793103,5.5744163921756975 -9.655172413793103,-5.5744163921756975" stroke="white" stroke-width="2" fill="green"><title>Powys</title></polygon></g><g transform="translate(106.20689655172413,312.16731796183905)"><polygon points="0,-11.148832784351395 9.655172413793103,-5.5744163921756975 9.655172413793103,5.5744163921756975 0,11.148832784351395 -9.655172413793103,5.5744163921756975 -9.655172413793103,-5.5744163921756975" stroke="white" stroke-width="2" fill="green"><title>Merthyr Tydfil</title></polygon></g><text x="0" y="0" font-family="sans-serif" font-size="24px" alignment-baseline="hanging">Shires</text><text x="0" y="460" font-family="sans-serif" font-size="12px" alignment-baseline="hanging">Upper Tier Local Authorities containing 'shire' (orange)</text><text x="0" y="478" font-family="sans-serif" font-size="12px" alignment-baseline="hanging">Data source: ODI Leeds. Graphic: Tom White</text></g></svg>